<mxfile host="Electron" agent="Mozilla/5.0 (Windows NT 10.0; Win64; x64) AppleWebKit/537.36 (KHTML, like Gecko) draw.io/24.7.17 Chrome/128.0.6613.36 Electron/32.0.1 Safari/537.36" version="24.7.17" pages="5">
  <diagram id="r1rUklZW8U9_ztuti1oU" name="constraints">
    <mxGraphModel dx="2284" dy="1944" grid="1" gridSize="10" guides="1" tooltips="1" connect="1" arrows="1" fold="1" page="1" pageScale="1" pageWidth="850" pageHeight="1100" math="0" shadow="0">
      <root>
        <mxCell id="0" />
        <mxCell id="1" parent="0" />
        <mxCell id="DFPxHQmIbWRyHZBybpQy-3" style="edgeStyle=orthogonalEdgeStyle;rounded=0;orthogonalLoop=1;jettySize=auto;html=1;strokeWidth=3;startArrow=classic;startFill=1;shape=flexArrow;" parent="1" source="DFPxHQmIbWRyHZBybpQy-1" target="6rofM1bQKMw729bv26k0-3" edge="1">
          <mxGeometry relative="1" as="geometry">
            <Array as="points">
              <mxPoint x="590" y="340" />
              <mxPoint x="590" y="340" />
            </Array>
          </mxGeometry>
        </mxCell>
        <mxCell id="DFPxHQmIbWRyHZBybpQy-2" style="edgeStyle=orthogonalEdgeStyle;rounded=0;orthogonalLoop=1;jettySize=auto;html=1;strokeWidth=3;startArrow=classic;startFill=1;shape=flexArrow;" parent="1" edge="1">
          <mxGeometry relative="1" as="geometry">
            <Array as="points">
              <mxPoint x="830" y="490" />
              <mxPoint x="830" y="490" />
            </Array>
            <mxPoint x="830" y="670" as="sourcePoint" />
            <mxPoint x="830" y="370" as="targetPoint" />
          </mxGeometry>
        </mxCell>
        <mxCell id="6rofM1bQKMw729bv26k0-6" style="edgeStyle=orthogonalEdgeStyle;rounded=0;orthogonalLoop=1;jettySize=auto;html=1;fillColor=#f8cecc;strokeColor=#b85450;strokeWidth=3;" parent="1" source="6rofM1bQKMw729bv26k0-1" target="6rofM1bQKMw729bv26k0-4" edge="1">
          <mxGeometry relative="1" as="geometry">
            <Array as="points">
              <mxPoint x="290" y="110" />
            </Array>
          </mxGeometry>
        </mxCell>
        <mxCell id="6rofM1bQKMw729bv26k0-10" style="edgeStyle=orthogonalEdgeStyle;rounded=0;orthogonalLoop=1;jettySize=auto;html=1;" parent="1" source="6rofM1bQKMw729bv26k0-1" target="6rofM1bQKMw729bv26k0-3" edge="1">
          <mxGeometry relative="1" as="geometry">
            <Array as="points">
              <mxPoint x="340" y="280" />
              <mxPoint x="340" y="280" />
            </Array>
          </mxGeometry>
        </mxCell>
        <mxCell id="6rofM1bQKMw729bv26k0-34" style="edgeStyle=orthogonalEdgeStyle;rounded=0;orthogonalLoop=1;jettySize=auto;html=1;fillColor=#ffe6cc;strokeColor=#d79b00;strokeWidth=3;" parent="1" source="6rofM1bQKMw729bv26k0-1" target="6rofM1bQKMw729bv26k0-2" edge="1">
          <mxGeometry relative="1" as="geometry">
            <Array as="points">
              <mxPoint x="290" y="460" />
            </Array>
          </mxGeometry>
        </mxCell>
        <mxCell id="6rofM1bQKMw729bv26k0-74" style="edgeStyle=orthogonalEdgeStyle;rounded=0;orthogonalLoop=1;jettySize=auto;html=1;fillColor=#ffe6cc;strokeColor=#d79b00;strokeWidth=3;" parent="1" source="6rofM1bQKMw729bv26k0-1" target="6rofM1bQKMw729bv26k0-73" edge="1">
          <mxGeometry relative="1" as="geometry">
            <Array as="points">
              <mxPoint x="270" y="540" />
              <mxPoint x="1210" y="540" />
            </Array>
          </mxGeometry>
        </mxCell>
        <mxCell id="bvNp8ZLqIO7MD2cYtSBi-1" style="edgeStyle=orthogonalEdgeStyle;rounded=0;orthogonalLoop=1;jettySize=auto;html=1;fillColor=#ffe6cc;strokeColor=#d79b00;strokeWidth=3;" edge="1" parent="1" source="6rofM1bQKMw729bv26k0-1" target="DFPxHQmIbWRyHZBybpQy-1">
          <mxGeometry relative="1" as="geometry">
            <Array as="points">
              <mxPoint x="760" y="230" />
            </Array>
          </mxGeometry>
        </mxCell>
        <mxCell id="6rofM1bQKMw729bv26k0-1" value="is glyph &amp;lt;X&amp;gt; used in the solution?" style="rounded=0;whiteSpace=wrap;html=1;strokeWidth=3;fillColor=#ffe6cc;strokeColor=#d79b00;" parent="1" vertex="1">
          <mxGeometry x="230" y="200" width="120" height="60" as="geometry" />
        </mxCell>
        <mxCell id="6rofM1bQKMw729bv26k0-7" style="edgeStyle=orthogonalEdgeStyle;rounded=0;orthogonalLoop=1;jettySize=auto;html=1;" parent="1" source="6rofM1bQKMw729bv26k0-2" target="6rofM1bQKMw729bv26k0-3" edge="1">
          <mxGeometry relative="1" as="geometry" />
        </mxCell>
        <mxCell id="6rofM1bQKMw729bv26k0-60" style="edgeStyle=orthogonalEdgeStyle;rounded=0;orthogonalLoop=1;jettySize=auto;html=1;fillColor=#dae8fc;strokeColor=#6c8ebf;strokeWidth=3;" parent="1" source="6rofM1bQKMw729bv26k0-2" target="6rofM1bQKMw729bv26k0-61" edge="1">
          <mxGeometry relative="1" as="geometry">
            <mxPoint x="910" y="540" as="targetPoint" />
            <Array as="points">
              <mxPoint x="420" y="420" />
            </Array>
          </mxGeometry>
        </mxCell>
        <mxCell id="6rofM1bQKMw729bv26k0-77" style="edgeStyle=orthogonalEdgeStyle;rounded=0;orthogonalLoop=1;jettySize=auto;html=1;fillColor=#dae8fc;strokeColor=#6c8ebf;strokeWidth=3;" parent="1" source="6rofM1bQKMw729bv26k0-2" target="6rofM1bQKMw729bv26k0-73" edge="1">
          <mxGeometry relative="1" as="geometry">
            <Array as="points">
              <mxPoint x="420" y="420" />
              <mxPoint x="1250" y="420" />
            </Array>
          </mxGeometry>
        </mxCell>
        <mxCell id="dwdRrUUnLB4-1qV5dlMG-5" style="edgeStyle=orthogonalEdgeStyle;rounded=0;orthogonalLoop=1;jettySize=auto;html=1;" edge="1" parent="1" source="6rofM1bQKMw729bv26k0-2" target="dwdRrUUnLB4-1qV5dlMG-3">
          <mxGeometry relative="1" as="geometry">
            <Array as="points">
              <mxPoint x="550" y="440" />
            </Array>
          </mxGeometry>
        </mxCell>
        <mxCell id="6rofM1bQKMw729bv26k0-2" value="what length is the arm?" style="rounded=0;whiteSpace=wrap;html=1;fillColor=#dae8fc;strokeColor=#6c8ebf;strokeWidth=3;" parent="1" vertex="1">
          <mxGeometry x="320" y="430" width="120" height="60" as="geometry" />
        </mxCell>
        <mxCell id="6rofM1bQKMw729bv26k0-5" style="edgeStyle=orthogonalEdgeStyle;rounded=0;orthogonalLoop=1;jettySize=auto;html=1;fillColor=#f8cecc;strokeColor=#b85450;strokeWidth=3;" parent="1" source="6rofM1bQKMw729bv26k0-3" target="6rofM1bQKMw729bv26k0-4" edge="1">
          <mxGeometry relative="1" as="geometry">
            <Array as="points">
              <mxPoint x="380" y="130" />
            </Array>
          </mxGeometry>
        </mxCell>
        <mxCell id="6rofM1bQKMw729bv26k0-58" style="edgeStyle=orthogonalEdgeStyle;rounded=0;orthogonalLoop=1;jettySize=auto;html=1;fillColor=#ffe6cc;strokeColor=#d79b00;strokeWidth=3;" parent="1" source="6rofM1bQKMw729bv26k0-3" target="6rofM1bQKMw729bv26k0-61" edge="1">
          <mxGeometry relative="1" as="geometry">
            <mxPoint x="430" y="400" as="sourcePoint" />
            <mxPoint x="1340" y="768" as="targetPoint" />
            <Array as="points">
              <mxPoint x="420" y="400" />
            </Array>
          </mxGeometry>
        </mxCell>
        <mxCell id="6rofM1bQKMw729bv26k0-78" style="edgeStyle=orthogonalEdgeStyle;rounded=0;orthogonalLoop=1;jettySize=auto;html=1;fillColor=#ffe6cc;strokeColor=#d79b00;strokeWidth=3;" parent="1" source="6rofM1bQKMw729bv26k0-3" target="6rofM1bQKMw729bv26k0-73" edge="1">
          <mxGeometry relative="1" as="geometry">
            <Array as="points">
              <mxPoint x="420" y="400" />
              <mxPoint x="1270" y="400" />
            </Array>
          </mxGeometry>
        </mxCell>
        <mxCell id="dwdRrUUnLB4-1qV5dlMG-4" style="edgeStyle=orthogonalEdgeStyle;rounded=0;orthogonalLoop=1;jettySize=auto;html=1;" edge="1" parent="1" source="6rofM1bQKMw729bv26k0-3" target="dwdRrUUnLB4-1qV5dlMG-3">
          <mxGeometry relative="1" as="geometry">
            <Array as="points">
              <mxPoint x="420" y="290" />
            </Array>
          </mxGeometry>
        </mxCell>
        <mxCell id="6rofM1bQKMw729bv26k0-3" value="how many track are used?" style="rounded=0;whiteSpace=wrap;html=1;strokeWidth=3;fillColor=#ffe6cc;strokeColor=#d79b00;" parent="1" vertex="1">
          <mxGeometry x="320" y="310" width="120" height="60" as="geometry" />
        </mxCell>
        <mxCell id="6rofM1bQKMw729bv26k0-4" value="what is the cost&lt;div&gt;of the solution?&lt;/div&gt;" style="rounded=0;whiteSpace=wrap;html=1;fillColor=#f8cecc;strokeColor=#b85450;strokeWidth=3;" parent="1" vertex="1">
          <mxGeometry x="450" y="90" width="120" height="60" as="geometry" />
        </mxCell>
        <mxCell id="6rofM1bQKMw729bv26k0-9" style="edgeStyle=orthogonalEdgeStyle;rounded=0;orthogonalLoop=1;jettySize=auto;html=1;" parent="1" source="6rofM1bQKMw729bv26k0-8" target="6rofM1bQKMw729bv26k0-26" edge="1">
          <mxGeometry relative="1" as="geometry">
            <Array as="points">
              <mxPoint x="260" y="660" />
              <mxPoint x="260" y="660" />
            </Array>
          </mxGeometry>
        </mxCell>
        <mxCell id="6rofM1bQKMw729bv26k0-8" value="what product types are in the puzzle" style="rounded=0;whiteSpace=wrap;html=1;fillColor=#e1d5e7;strokeColor=#9673a6;strokeWidth=3;" parent="1" vertex="1">
          <mxGeometry x="160" y="670" width="120" height="60" as="geometry" />
        </mxCell>
        <mxCell id="6rofM1bQKMw729bv26k0-16" style="edgeStyle=orthogonalEdgeStyle;rounded=0;orthogonalLoop=1;jettySize=auto;html=1;" parent="1" source="6rofM1bQKMw729bv26k0-11" target="6rofM1bQKMw729bv26k0-15" edge="1">
          <mxGeometry relative="1" as="geometry" />
        </mxCell>
        <mxCell id="6rofM1bQKMw729bv26k0-11" value="what recipes are available in the puzzle?" style="rounded=0;whiteSpace=wrap;html=1;" parent="1" vertex="1">
          <mxGeometry x="20" y="320" width="120" height="60" as="geometry" />
        </mxCell>
        <mxCell id="6rofM1bQKMw729bv26k0-13" style="edgeStyle=orthogonalEdgeStyle;rounded=0;orthogonalLoop=1;jettySize=auto;html=1;" parent="1" source="6rofM1bQKMw729bv26k0-12" target="6rofM1bQKMw729bv26k0-1" edge="1">
          <mxGeometry relative="1" as="geometry">
            <Array as="points">
              <mxPoint x="180" y="230" />
              <mxPoint x="180" y="230" />
            </Array>
          </mxGeometry>
        </mxCell>
        <mxCell id="6rofM1bQKMw729bv26k0-14" style="edgeStyle=orthogonalEdgeStyle;rounded=0;orthogonalLoop=1;jettySize=auto;html=1;exitX=0.5;exitY=1;exitDx=0;exitDy=0;" parent="1" source="6rofM1bQKMw729bv26k0-12" target="6rofM1bQKMw729bv26k0-11" edge="1">
          <mxGeometry relative="1" as="geometry" />
        </mxCell>
        <mxCell id="6rofM1bQKMw729bv26k0-12" value="is glyph &amp;lt;X&amp;gt; available in the puzzle?" style="rounded=0;whiteSpace=wrap;html=1;fillColor=#e1d5e7;strokeColor=#9673a6;strokeWidth=3;" parent="1" vertex="1">
          <mxGeometry x="20" y="200" width="120" height="60" as="geometry" />
        </mxCell>
        <mxCell id="6rofM1bQKMw729bv26k0-20" style="edgeStyle=orthogonalEdgeStyle;rounded=0;orthogonalLoop=1;jettySize=auto;html=1;" parent="1" source="6rofM1bQKMw729bv26k0-15" target="6rofM1bQKMw729bv26k0-19" edge="1">
          <mxGeometry relative="1" as="geometry">
            <Array as="points">
              <mxPoint x="80" y="530" />
              <mxPoint x="80" y="530" />
            </Array>
          </mxGeometry>
        </mxCell>
        <mxCell id="6rofM1bQKMw729bv26k0-15" value="what recipes are usable in the puzzle?" style="rounded=0;whiteSpace=wrap;html=1;" parent="1" vertex="1">
          <mxGeometry x="20" y="430" width="120" height="60" as="geometry" />
        </mxCell>
        <mxCell id="6rofM1bQKMw729bv26k0-18" style="edgeStyle=orthogonalEdgeStyle;rounded=0;orthogonalLoop=1;jettySize=auto;html=1;" parent="1" source="6rofM1bQKMw729bv26k0-17" target="6rofM1bQKMw729bv26k0-15" edge="1">
          <mxGeometry relative="1" as="geometry">
            <Array as="points">
              <mxPoint x="-90" y="460" />
            </Array>
          </mxGeometry>
        </mxCell>
        <mxCell id="6rofM1bQKMw729bv26k0-17" value="what reagent types are in the puzzle" style="rounded=0;whiteSpace=wrap;html=1;fillColor=#e1d5e7;strokeColor=#9673a6;strokeWidth=3;" parent="1" vertex="1">
          <mxGeometry x="-150" y="430" width="120" height="60" as="geometry" />
        </mxCell>
        <mxCell id="6rofM1bQKMw729bv26k0-27" style="edgeStyle=orthogonalEdgeStyle;rounded=0;orthogonalLoop=1;jettySize=auto;html=1;" parent="1" source="6rofM1bQKMw729bv26k0-19" target="6rofM1bQKMw729bv26k0-26" edge="1">
          <mxGeometry relative="1" as="geometry">
            <Array as="points">
              <mxPoint x="170" y="600" />
              <mxPoint x="170" y="600" />
            </Array>
          </mxGeometry>
        </mxCell>
        <mxCell id="6rofM1bQKMw729bv26k0-19" value="what recipes can create a type" style="rounded=0;whiteSpace=wrap;html=1;" parent="1" vertex="1">
          <mxGeometry x="20" y="570" width="120" height="60" as="geometry" />
        </mxCell>
        <mxCell id="6rofM1bQKMw729bv26k0-25" style="edgeStyle=orthogonalEdgeStyle;rounded=0;orthogonalLoop=1;jettySize=auto;html=1;fillColor=#fff2cc;strokeColor=#d6b656;strokeWidth=3;" parent="1" source="6rofM1bQKMw729bv26k0-23" target="6rofM1bQKMw729bv26k0-24" edge="1">
          <mxGeometry relative="1" as="geometry" />
        </mxCell>
        <mxCell id="6rofM1bQKMw729bv26k0-36" style="edgeStyle=orthogonalEdgeStyle;rounded=0;orthogonalLoop=1;jettySize=auto;html=1;" parent="1" source="6rofM1bQKMw729bv26k0-23" target="6rofM1bQKMw729bv26k0-35" edge="1">
          <mxGeometry relative="1" as="geometry">
            <Array as="points">
              <mxPoint x="450" y="770" />
            </Array>
          </mxGeometry>
        </mxCell>
        <mxCell id="4ALb5vweJqs2hPrQRXfx-7" style="edgeStyle=orthogonalEdgeStyle;rounded=0;orthogonalLoop=1;jettySize=auto;html=1;fillColor=#d5e8d4;strokeColor=#82b366;strokeWidth=3;" parent="1" source="6rofM1bQKMw729bv26k0-23" target="4ALb5vweJqs2hPrQRXfx-6" edge="1">
          <mxGeometry relative="1" as="geometry">
            <Array as="points">
              <mxPoint x="490" y="650" />
              <mxPoint x="490" y="650" />
            </Array>
          </mxGeometry>
        </mxCell>
        <mxCell id="6rofM1bQKMw729bv26k0-23" value="how often are all recipes applied?" style="rounded=0;whiteSpace=wrap;html=1;fillColor=#dae8fc;strokeColor=#6c8ebf;strokeWidth=3;" parent="1" vertex="1">
          <mxGeometry x="390" y="570" width="120" height="60" as="geometry" />
        </mxCell>
        <mxCell id="6rofM1bQKMw729bv26k0-31" style="edgeStyle=orthogonalEdgeStyle;rounded=0;orthogonalLoop=1;jettySize=auto;html=1;exitX=0.5;exitY=0;exitDx=0;exitDy=0;fillColor=#fff2cc;strokeColor=#d6b656;strokeWidth=3;" parent="1" source="6rofM1bQKMw729bv26k0-24" target="6rofM1bQKMw729bv26k0-30" edge="1">
          <mxGeometry relative="1" as="geometry" />
        </mxCell>
        <mxCell id="6rofM1bQKMw729bv26k0-24" value="is there byproduct?" style="rounded=0;whiteSpace=wrap;html=1;" parent="1" vertex="1">
          <mxGeometry x="580" y="570" width="120" height="60" as="geometry" />
        </mxCell>
        <mxCell id="6rofM1bQKMw729bv26k0-28" style="edgeStyle=orthogonalEdgeStyle;rounded=0;orthogonalLoop=1;jettySize=auto;html=1;fillColor=#dae8fc;strokeColor=#6c8ebf;strokeWidth=3;" parent="1" source="6rofM1bQKMw729bv26k0-26" target="6rofM1bQKMw729bv26k0-1" edge="1">
          <mxGeometry relative="1" as="geometry">
            <Array as="points">
              <mxPoint x="250" y="410" />
              <mxPoint x="250" y="410" />
            </Array>
          </mxGeometry>
        </mxCell>
        <mxCell id="6rofM1bQKMw729bv26k0-29" style="edgeStyle=orthogonalEdgeStyle;rounded=0;orthogonalLoop=1;jettySize=auto;html=1;fillColor=#dae8fc;strokeColor=#6c8ebf;strokeWidth=3;" parent="1" source="6rofM1bQKMw729bv26k0-26" target="6rofM1bQKMw729bv26k0-23" edge="1">
          <mxGeometry relative="1" as="geometry" />
        </mxCell>
        <mxCell id="6rofM1bQKMw729bv26k0-26" value="what recipes are used in the puzzle?" style="rounded=0;whiteSpace=wrap;html=1;fillColor=#dae8fc;strokeColor=#6c8ebf;strokeWidth=3;" parent="1" vertex="1">
          <mxGeometry x="200" y="570" width="120" height="60" as="geometry" />
        </mxCell>
        <mxCell id="6rofM1bQKMw729bv26k0-33" style="edgeStyle=orthogonalEdgeStyle;rounded=0;orthogonalLoop=1;jettySize=auto;html=1;exitX=0;exitY=0.5;exitDx=0;exitDy=0;fillColor=#fff2cc;strokeColor=#d6b656;strokeWidth=3;" parent="1" source="6rofM1bQKMw729bv26k0-30" target="6rofM1bQKMw729bv26k0-2" edge="1">
          <mxGeometry relative="1" as="geometry" />
        </mxCell>
        <mxCell id="6rofM1bQKMw729bv26k0-76" style="edgeStyle=orthogonalEdgeStyle;rounded=0;orthogonalLoop=1;jettySize=auto;html=1;entryX=0;entryY=0.75;entryDx=0;entryDy=0;fillColor=#fff2cc;strokeColor=#d6b656;strokeWidth=3;" parent="1" source="6rofM1bQKMw729bv26k0-30" target="6rofM1bQKMw729bv26k0-42" edge="1">
          <mxGeometry relative="1" as="geometry">
            <Array as="points">
              <mxPoint x="640" y="5" />
            </Array>
          </mxGeometry>
        </mxCell>
        <mxCell id="4ALb5vweJqs2hPrQRXfx-13" style="edgeStyle=orthogonalEdgeStyle;rounded=0;orthogonalLoop=1;jettySize=auto;html=1;exitX=1;exitY=0.5;exitDx=0;exitDy=0;" parent="1" source="6rofM1bQKMw729bv26k0-30" target="6rofM1bQKMw729bv26k0-35" edge="1">
          <mxGeometry relative="1" as="geometry">
            <Array as="points">
              <mxPoint x="770" y="460" />
            </Array>
          </mxGeometry>
        </mxCell>
        <mxCell id="6rofM1bQKMw729bv26k0-30" value="is byproduct solved with a chainball, disposer, or waste cells?" style="rounded=0;whiteSpace=wrap;html=1;fillColor=#dae8fc;strokeColor=#6c8ebf;strokeWidth=3;" parent="1" vertex="1">
          <mxGeometry x="580" y="430" width="120" height="60" as="geometry" />
        </mxCell>
        <mxCell id="6rofM1bQKMw729bv26k0-32" style="edgeStyle=orthogonalEdgeStyle;rounded=0;orthogonalLoop=1;jettySize=auto;html=1;fillColor=#fff2cc;strokeColor=#d6b656;strokeWidth=3;" parent="1" source="6rofM1bQKMw729bv26k0-30" target="6rofM1bQKMw729bv26k0-37" edge="1">
          <mxGeometry relative="1" as="geometry">
            <Array as="points">
              <mxPoint x="640" y="200" />
            </Array>
          </mxGeometry>
        </mxCell>
        <mxCell id="6rofM1bQKMw729bv26k0-51" style="edgeStyle=orthogonalEdgeStyle;rounded=0;orthogonalLoop=1;jettySize=auto;html=1;exitX=1;exitY=0.5;exitDx=0;exitDy=0;" parent="1" source="6rofM1bQKMw729bv26k0-35" target="6rofM1bQKMw729bv26k0-50" edge="1">
          <mxGeometry relative="1" as="geometry">
            <Array as="points">
              <mxPoint x="800" y="770" />
              <mxPoint x="800" y="710" />
            </Array>
          </mxGeometry>
        </mxCell>
        <mxCell id="6rofM1bQKMw729bv26k0-35" value="what are the moves to apply over the course of a solution?" style="rounded=0;whiteSpace=wrap;html=1;" parent="1" vertex="1">
          <mxGeometry x="670" y="740" width="120" height="60" as="geometry" />
        </mxCell>
        <mxCell id="6rofM1bQKMw729bv26k0-38" style="edgeStyle=orthogonalEdgeStyle;rounded=0;orthogonalLoop=1;jettySize=auto;html=1;fillColor=#f8cecc;strokeColor=#b85450;strokeWidth=3;" parent="1" source="6rofM1bQKMw729bv26k0-37" target="6rofM1bQKMw729bv26k0-4" edge="1">
          <mxGeometry relative="1" as="geometry">
            <mxPoint x="680" y="200" as="sourcePoint" />
            <Array as="points">
              <mxPoint x="750" y="130" />
            </Array>
          </mxGeometry>
        </mxCell>
        <mxCell id="6rofM1bQKMw729bv26k0-65" style="edgeStyle=orthogonalEdgeStyle;rounded=0;orthogonalLoop=1;jettySize=auto;html=1;fillColor=#ffe6cc;strokeColor=#d79b00;strokeWidth=3;" parent="1" source="6rofM1bQKMw729bv26k0-37" target="DFPxHQmIbWRyHZBybpQy-1" edge="1">
          <mxGeometry relative="1" as="geometry">
            <Array as="points" />
            <mxPoint x="820" y="250" as="targetPoint" />
          </mxGeometry>
        </mxCell>
        <mxCell id="6rofM1bQKMw729bv26k0-37" value="is a bonder used in the puzzle?" style="rounded=0;whiteSpace=wrap;html=1;fillColor=#ffe6cc;strokeColor=#d79b00;strokeWidth=3;" parent="1" vertex="1">
          <mxGeometry x="730" y="150" width="120" height="60" as="geometry" />
        </mxCell>
        <mxCell id="6rofM1bQKMw729bv26k0-40" style="edgeStyle=orthogonalEdgeStyle;rounded=0;orthogonalLoop=1;jettySize=auto;html=1;" parent="1" source="6rofM1bQKMw729bv26k0-39" target="6rofM1bQKMw729bv26k0-37" edge="1">
          <mxGeometry relative="1" as="geometry">
            <Array as="points">
              <mxPoint x="940" y="140" />
              <mxPoint x="940" y="170" />
            </Array>
          </mxGeometry>
        </mxCell>
        <mxCell id="6rofM1bQKMw729bv26k0-39" value="is any product larger than all reagents?" style="rounded=0;whiteSpace=wrap;html=1;fillColor=#e1d5e7;strokeColor=#9673a6;strokeWidth=1;" parent="1" vertex="1">
          <mxGeometry x="970" y="90" width="120" height="60" as="geometry" />
        </mxCell>
        <mxCell id="6rofM1bQKMw729bv26k0-43" style="edgeStyle=orthogonalEdgeStyle;rounded=0;orthogonalLoop=1;jettySize=auto;html=1;" parent="1" source="6rofM1bQKMw729bv26k0-41" target="6rofM1bQKMw729bv26k0-42" edge="1">
          <mxGeometry relative="1" as="geometry">
            <Array as="points">
              <mxPoint x="940" y="30" />
              <mxPoint x="940" />
            </Array>
          </mxGeometry>
        </mxCell>
        <mxCell id="6rofM1bQKMw729bv26k0-41" value="is any product smaller than all reagents?" style="rounded=0;whiteSpace=wrap;html=1;fillColor=#e1d5e7;strokeColor=#9673a6;strokeWidth=1;" parent="1" vertex="1">
          <mxGeometry x="970" y="10" width="120" height="60" as="geometry" />
        </mxCell>
        <mxCell id="6rofM1bQKMw729bv26k0-71" style="edgeStyle=orthogonalEdgeStyle;rounded=0;orthogonalLoop=1;jettySize=auto;html=1;strokeWidth=3;fillColor=#ffe6cc;strokeColor=#d79b00;" parent="1" source="6rofM1bQKMw729bv26k0-42" target="DFPxHQmIbWRyHZBybpQy-1" edge="1">
          <mxGeometry relative="1" as="geometry">
            <Array as="points">
              <mxPoint x="820" y="130" />
              <mxPoint x="870" y="130" />
              <mxPoint x="870" y="230" />
              <mxPoint x="820" y="230" />
            </Array>
            <mxPoint x="830" y="100" as="targetPoint" />
          </mxGeometry>
        </mxCell>
        <mxCell id="6rofM1bQKMw729bv26k0-42" value="is a debonder used in the puzzle?" style="rounded=0;whiteSpace=wrap;html=1;fillColor=#ffe6cc;strokeColor=#d79b00;strokeWidth=3;" parent="1" vertex="1">
          <mxGeometry x="730" y="-40" width="120" height="60" as="geometry" />
        </mxCell>
        <mxCell id="6rofM1bQKMw729bv26k0-45" style="edgeStyle=orthogonalEdgeStyle;rounded=0;orthogonalLoop=1;jettySize=auto;html=1;" parent="1" source="6rofM1bQKMw729bv26k0-44" target="6rofM1bQKMw729bv26k0-37" edge="1">
          <mxGeometry relative="1" as="geometry">
            <Array as="points">
              <mxPoint x="910" y="190" />
              <mxPoint x="910" y="190" />
            </Array>
          </mxGeometry>
        </mxCell>
        <mxCell id="6rofM1bQKMw729bv26k0-44" value="are all products&lt;div&gt;1 atom?&lt;/div&gt;" style="rounded=0;whiteSpace=wrap;html=1;fillColor=#e1d5e7;strokeColor=#9673a6;strokeWidth=1;" parent="1" vertex="1">
          <mxGeometry x="970" y="170" width="120" height="60" as="geometry" />
        </mxCell>
        <mxCell id="6rofM1bQKMw729bv26k0-47" style="edgeStyle=orthogonalEdgeStyle;rounded=0;orthogonalLoop=1;jettySize=auto;html=1;" parent="1" source="6rofM1bQKMw729bv26k0-46" target="6rofM1bQKMw729bv26k0-42" edge="1">
          <mxGeometry relative="1" as="geometry">
            <Array as="points">
              <mxPoint x="940" y="-40" />
              <mxPoint x="940" y="-20" />
            </Array>
          </mxGeometry>
        </mxCell>
        <mxCell id="6rofM1bQKMw729bv26k0-46" value="are all reagents&lt;div&gt;1 atom?&lt;/div&gt;" style="rounded=0;whiteSpace=wrap;html=1;fillColor=#e1d5e7;strokeColor=#9673a6;strokeWidth=1;" parent="1" vertex="1">
          <mxGeometry x="970" y="-70" width="120" height="60" as="geometry" />
        </mxCell>
        <mxCell id="6rofM1bQKMw729bv26k0-48" style="edgeStyle=orthogonalEdgeStyle;rounded=0;orthogonalLoop=1;jettySize=auto;html=1;fillColor=#f8cecc;strokeColor=#b85450;strokeWidth=3;" parent="1" source="6rofM1bQKMw729bv26k0-42" target="6rofM1bQKMw729bv26k0-4" edge="1">
          <mxGeometry relative="1" as="geometry">
            <Array as="points">
              <mxPoint x="750" y="110" />
            </Array>
          </mxGeometry>
        </mxCell>
        <mxCell id="6rofM1bQKMw729bv26k0-49" value="is the solution possible?" style="rounded=0;whiteSpace=wrap;html=1;fillColor=#f8cecc;strokeColor=#b85450;strokeWidth=3;" parent="1" vertex="1">
          <mxGeometry x="1215" y="240" width="120" height="60" as="geometry" />
        </mxCell>
        <mxCell id="6rofM1bQKMw729bv26k0-54" style="edgeStyle=orthogonalEdgeStyle;rounded=0;orthogonalLoop=1;jettySize=auto;html=1;exitX=1;exitY=0.5;exitDx=0;exitDy=0;entryX=0;entryY=0.5;entryDx=0;entryDy=0;strokeWidth=3;fillColor=#d5e8d4;strokeColor=#82b366;" parent="1" source="6rofM1bQKMw729bv26k0-50" target="6rofM1bQKMw729bv26k0-53" edge="1">
          <mxGeometry relative="1" as="geometry" />
        </mxCell>
        <mxCell id="4ALb5vweJqs2hPrQRXfx-5" style="edgeStyle=orthogonalEdgeStyle;rounded=0;orthogonalLoop=1;jettySize=auto;html=1;fillColor=#d5e8d4;strokeColor=#82b366;strokeWidth=3;" parent="1" source="6rofM1bQKMw729bv26k0-50" target="6rofM1bQKMw729bv26k0-73" edge="1">
          <mxGeometry relative="1" as="geometry">
            <Array as="points">
              <mxPoint x="880" y="760" />
              <mxPoint x="1240" y="760" />
            </Array>
          </mxGeometry>
        </mxCell>
        <mxCell id="6rofM1bQKMw729bv26k0-50" value="what is the order the moves are performed?" style="rounded=0;whiteSpace=wrap;html=1;fillColor=#d5e8d4;strokeColor=#82b366;strokeWidth=3;" parent="1" vertex="1">
          <mxGeometry x="820" y="670" width="120" height="60" as="geometry" />
        </mxCell>
        <mxCell id="6rofM1bQKMw729bv26k0-57" style="edgeStyle=orthogonalEdgeStyle;rounded=0;orthogonalLoop=1;jettySize=auto;html=1;exitX=1;exitY=0.5;exitDx=0;exitDy=0;entryX=0;entryY=0.5;entryDx=0;entryDy=0;fillColor=#d5e8d4;strokeColor=#82b366;strokeWidth=3;" parent="1" source="6rofM1bQKMw729bv26k0-52" target="6rofM1bQKMw729bv26k0-56" edge="1">
          <mxGeometry relative="1" as="geometry" />
        </mxCell>
        <mxCell id="6rofM1bQKMw729bv26k0-52" value="what paths can the molecule take to their orientations?" style="rounded=0;whiteSpace=wrap;html=1;fillColor=#d5e8d4;strokeColor=#82b366;strokeWidth=3;" parent="1" vertex="1">
          <mxGeometry x="1360" y="670" width="120" height="60" as="geometry" />
        </mxCell>
        <mxCell id="6rofM1bQKMw729bv26k0-55" style="edgeStyle=orthogonalEdgeStyle;rounded=0;orthogonalLoop=1;jettySize=auto;html=1;strokeWidth=3;fillColor=#d5e8d4;strokeColor=#82b366;" parent="1" source="6rofM1bQKMw729bv26k0-53" target="6rofM1bQKMw729bv26k0-52" edge="1">
          <mxGeometry relative="1" as="geometry">
            <Array as="points">
              <mxPoint x="1050" y="790" />
              <mxPoint x="1420" y="790" />
            </Array>
          </mxGeometry>
        </mxCell>
        <mxCell id="dwdRrUUnLB4-1qV5dlMG-2" style="edgeStyle=orthogonalEdgeStyle;rounded=0;orthogonalLoop=1;jettySize=auto;html=1;strokeWidth=3;fillColor=#d5e8d4;strokeColor=#82b366;" edge="1" parent="1" source="6rofM1bQKMw729bv26k0-53" target="6rofM1bQKMw729bv26k0-73">
          <mxGeometry relative="1" as="geometry">
            <Array as="points">
              <mxPoint x="1150" y="700" />
              <mxPoint x="1150" y="700" />
            </Array>
          </mxGeometry>
        </mxCell>
        <mxCell id="6rofM1bQKMw729bv26k0-53" value="what possible orientations of the molecule satisfy the move?" style="rounded=0;whiteSpace=wrap;html=1;fillColor=#d5e8d4;strokeColor=#82b366;strokeWidth=3;" parent="1" vertex="1">
          <mxGeometry x="990" y="670" width="120" height="60" as="geometry" />
        </mxCell>
        <mxCell id="6rofM1bQKMw729bv26k0-56" value="can molecules or atoms in the way be moved out of the way?" style="rounded=0;whiteSpace=wrap;html=1;fillColor=#d5e8d4;strokeColor=#82b366;" parent="1" vertex="1">
          <mxGeometry x="1540" y="670" width="120" height="60" as="geometry" />
        </mxCell>
        <mxCell id="6rofM1bQKMw729bv26k0-63" style="edgeStyle=orthogonalEdgeStyle;rounded=0;orthogonalLoop=1;jettySize=auto;html=1;" parent="1" source="6rofM1bQKMw729bv26k0-61" target="6rofM1bQKMw729bv26k0-52" edge="1">
          <mxGeometry relative="1" as="geometry">
            <Array as="points">
              <mxPoint x="1420" y="560" />
              <mxPoint x="1420" y="560" />
            </Array>
          </mxGeometry>
        </mxCell>
        <mxCell id="6rofM1bQKMw729bv26k0-64" style="edgeStyle=orthogonalEdgeStyle;rounded=0;orthogonalLoop=1;jettySize=auto;html=1;" parent="1" source="6rofM1bQKMw729bv26k0-61" target="6rofM1bQKMw729bv26k0-56" edge="1">
          <mxGeometry relative="1" as="geometry">
            <Array as="points">
              <mxPoint x="1420" y="640" />
              <mxPoint x="1600" y="640" />
            </Array>
          </mxGeometry>
        </mxCell>
        <mxCell id="dwdRrUUnLB4-1qV5dlMG-1" style="edgeStyle=orthogonalEdgeStyle;rounded=0;orthogonalLoop=1;jettySize=auto;html=1;" edge="1" parent="1" source="6rofM1bQKMw729bv26k0-61" target="6rofM1bQKMw729bv26k0-73">
          <mxGeometry relative="1" as="geometry">
            <Array as="points">
              <mxPoint x="1420" y="640" />
              <mxPoint x="1290" y="640" />
            </Array>
          </mxGeometry>
        </mxCell>
        <mxCell id="6rofM1bQKMw729bv26k0-61" value="what is the orientation space around the arm for a given molecule shape?" style="rounded=0;whiteSpace=wrap;html=1;" parent="1" vertex="1">
          <mxGeometry x="1360" y="380" width="120" height="60" as="geometry" />
        </mxCell>
        <mxCell id="6rofM1bQKMw729bv26k0-75" style="edgeStyle=orthogonalEdgeStyle;rounded=0;orthogonalLoop=1;jettySize=auto;html=1;fillColor=#d5e8d4;strokeColor=#82b366;strokeWidth=3;" parent="1" source="6rofM1bQKMw729bv26k0-73" target="6rofM1bQKMw729bv26k0-52" edge="1">
          <mxGeometry relative="1" as="geometry">
            <Array as="points">
              <mxPoint x="1320" y="700" />
              <mxPoint x="1320" y="700" />
            </Array>
          </mxGeometry>
        </mxCell>
        <mxCell id="6rofM1bQKMw729bv26k0-73" value="what are the positions of the glyphs and parts?" style="rounded=0;whiteSpace=wrap;html=1;fillColor=#d5e8d4;strokeColor=#82b366;strokeWidth=3;" parent="1" vertex="1">
          <mxGeometry x="1180" y="670" width="120" height="60" as="geometry" />
        </mxCell>
        <mxCell id="4ALb5vweJqs2hPrQRXfx-3" style="edgeStyle=orthogonalEdgeStyle;rounded=0;orthogonalLoop=1;jettySize=auto;html=1;" parent="1" source="4ALb5vweJqs2hPrQRXfx-2" target="6rofM1bQKMw729bv26k0-23" edge="1">
          <mxGeometry relative="1" as="geometry">
            <Array as="points">
              <mxPoint x="410" y="650" />
              <mxPoint x="410" y="650" />
            </Array>
          </mxGeometry>
        </mxCell>
        <mxCell id="4ALb5vweJqs2hPrQRXfx-2" value="what are the counts of atom types in the products and reagents?" style="rounded=0;whiteSpace=wrap;html=1;fillColor=#e1d5e7;strokeColor=#9673a6;strokeWidth=3;" parent="1" vertex="1">
          <mxGeometry x="305" y="670" width="120" height="60" as="geometry" />
        </mxCell>
        <mxCell id="4ALb5vweJqs2hPrQRXfx-11" style="edgeStyle=orthogonalEdgeStyle;rounded=0;orthogonalLoop=1;jettySize=auto;html=1;fillColor=#d5e8d4;strokeColor=#82b366;strokeWidth=3;" parent="1" source="4ALb5vweJqs2hPrQRXfx-6" target="4ALb5vweJqs2hPrQRXfx-10" edge="1">
          <mxGeometry relative="1" as="geometry" />
        </mxCell>
        <mxCell id="4ALb5vweJqs2hPrQRXfx-14" style="edgeStyle=orthogonalEdgeStyle;rounded=0;orthogonalLoop=1;jettySize=auto;html=1;exitX=0.5;exitY=1;exitDx=0;exitDy=0;entryX=0;entryY=0.25;entryDx=0;entryDy=0;" parent="1" source="4ALb5vweJqs2hPrQRXfx-6" target="6rofM1bQKMw729bv26k0-35" edge="1">
          <mxGeometry relative="1" as="geometry" />
        </mxCell>
        <mxCell id="4ALb5vweJqs2hPrQRXfx-6" value="which input atom does each product atom come from?" style="rounded=0;whiteSpace=wrap;html=1;fillColor=#d5e8d4;strokeColor=#82b366;strokeWidth=3;" parent="1" vertex="1">
          <mxGeometry x="470" y="670" width="120" height="60" as="geometry" />
        </mxCell>
        <mxCell id="4ALb5vweJqs2hPrQRXfx-12" style="edgeStyle=orthogonalEdgeStyle;rounded=0;orthogonalLoop=1;jettySize=auto;html=1;fillColor=#d5e8d4;strokeColor=#82b366;strokeWidth=3;" parent="1" source="4ALb5vweJqs2hPrQRXfx-10" target="6rofM1bQKMw729bv26k0-73" edge="1">
          <mxGeometry relative="1" as="geometry">
            <Array as="points">
              <mxPoint x="730" y="640" />
              <mxPoint x="1190" y="640" />
            </Array>
          </mxGeometry>
        </mxCell>
        <mxCell id="4ALb5vweJqs2hPrQRXfx-15" style="edgeStyle=orthogonalEdgeStyle;rounded=0;orthogonalLoop=1;jettySize=auto;html=1;fillColor=#d5e8d4;strokeColor=#82b366;strokeWidth=3;" parent="1" source="4ALb5vweJqs2hPrQRXfx-10" target="6rofM1bQKMw729bv26k0-50" edge="1">
          <mxGeometry relative="1" as="geometry">
            <Array as="points">
              <mxPoint x="800" y="690" />
              <mxPoint x="800" y="690" />
            </Array>
          </mxGeometry>
        </mxCell>
        <mxCell id="4ALb5vweJqs2hPrQRXfx-10" value="what are the paths that mass take from reagent to product?" style="rounded=0;whiteSpace=wrap;html=1;strokeWidth=3;fillColor=#d5e8d4;strokeColor=#82b366;" parent="1" vertex="1">
          <mxGeometry x="630" y="670" width="120" height="60" as="geometry" />
        </mxCell>
        <mxCell id="MkWyUixaVu4oN_XYOcK5-1" style="edgeStyle=orthogonalEdgeStyle;rounded=0;orthogonalLoop=1;jettySize=auto;html=1;fillColor=#d5e8d4;strokeColor=#82b366;strokeWidth=3;" edge="1" parent="1" source="DFPxHQmIbWRyHZBybpQy-1" target="6rofM1bQKMw729bv26k0-73">
          <mxGeometry relative="1" as="geometry">
            <Array as="points">
              <mxPoint x="1230" y="340" />
            </Array>
          </mxGeometry>
        </mxCell>
        <mxCell id="DFPxHQmIbWRyHZBybpQy-1" value="what are the access requirements of the parts?" style="rounded=0;whiteSpace=wrap;html=1;strokeWidth=3;fillColor=#d5e8d4;strokeColor=#82b366;" parent="1" vertex="1">
          <mxGeometry x="730" y="310" width="120" height="60" as="geometry" />
        </mxCell>
        <mxCell id="MkWyUixaVu4oN_XYOcK5-3" style="edgeStyle=orthogonalEdgeStyle;rounded=0;orthogonalLoop=1;jettySize=auto;html=1;" edge="1" parent="1" source="dwdRrUUnLB4-1qV5dlMG-3" target="DFPxHQmIbWRyHZBybpQy-1">
          <mxGeometry relative="1" as="geometry">
            <Array as="points">
              <mxPoint x="740" y="290" />
            </Array>
          </mxGeometry>
        </mxCell>
        <mxCell id="dwdRrUUnLB4-1qV5dlMG-3" value="how many access hexes are there?" style="rounded=0;whiteSpace=wrap;html=1;" vertex="1" parent="1">
          <mxGeometry x="490" y="260" width="120" height="60" as="geometry" />
        </mxCell>
        <mxCell id="MkWyUixaVu4oN_XYOcK5-4" value="&lt;u&gt;The amount of information that is decided upon before starting the program search process:&lt;/u&gt;&lt;div&gt;&lt;ul&gt;&lt;li&gt;recipes that are used&lt;/li&gt;&lt;li&gt;glyphs, bonders, and reagents that are used&lt;/li&gt;&lt;li&gt;the metrics of recipe, reagent, and product applications&lt;/li&gt;&lt;li&gt;the count and shape of tracks&lt;/li&gt;&lt;li&gt;the length of the arm&lt;/li&gt;&lt;li&gt;how byproduct is consumed/processed&lt;/li&gt;&lt;ul&gt;&lt;li&gt;a chainball needs a position to be saved in, just like a part&lt;/li&gt;&lt;/ul&gt;&lt;/ul&gt;&lt;div&gt;forwarded constraints because of these choices are:&lt;/div&gt;&lt;/div&gt;&lt;div&gt;&lt;ul&gt;&lt;li&gt;which parts need to have a position (parts that are used need a position)&lt;/li&gt;&lt;li&gt;which input atoms can be used to feed product atoms (lack of debonder or bonder)&lt;/li&gt;&lt;li&gt;how much access a part or glyph can have (due to less access hexes than total part hexes)&lt;/li&gt;&lt;li&gt;what order moves can happen in (because of limited access to certain parts)&lt;/li&gt;&lt;li&gt;what positions satisfy the needs for a move&lt;/li&gt;&lt;ul&gt;&lt;li&gt;(input molecules need to be able to be accessed from the position they end up in for a part&#39;s operation)&lt;/li&gt;&lt;/ul&gt;&lt;li&gt;&lt;br&gt;&lt;/li&gt;&lt;/ul&gt;&lt;/div&gt;" style="text;html=1;align=left;verticalAlign=top;resizable=0;points=[];autosize=1;horizontal=1;strokeColor=#666666;fillColor=#f5f5f5;fontColor=#333333;spacing=5;spacingTop=-5;" vertex="1" parent="1">
          <mxGeometry x="120" y="840" width="650" height="290" as="geometry" />
        </mxCell>
        <mxCell id="MkWyUixaVu4oN_XYOcK5-5" value="&lt;u&gt;This implies two separate stages&lt;/u&gt;&lt;div&gt;&lt;br&gt;&lt;/div&gt;&lt;div&gt;1. guessing major constraints that impact and decide the cost of the puzzle&lt;/div&gt;&lt;div&gt;2. searching for a solution to the puzzle within these constraints without impacting the cost of the puzzle&lt;/div&gt;" style="text;html=1;align=left;verticalAlign=top;resizable=0;points=[];autosize=1;horizontal=1;strokeColor=#666666;fillColor=#f5f5f5;fontColor=#333333;spacing=5;spacingTop=-5;" vertex="1" parent="1">
          <mxGeometry x="800" y="840" width="580" height="70" as="geometry" />
        </mxCell>
        <mxCell id="rIS1lYN2VgZsYGKTkPGS-1" value="&lt;u&gt;Stage 1&lt;/u&gt;&lt;div&gt;prioritize nodes with the least cost, then least byproduct&lt;br&gt;&lt;div&gt;1. if the bonder and unbonder constraints are not defined:&lt;/div&gt;&lt;div&gt;&lt;span style=&quot;background-color: initial;&quot;&gt;&lt;span style=&quot;white-space: pre;&quot;&gt;&#x9;&lt;/span&gt;- introduce the bonder and debonder constraints&lt;/span&gt;&lt;/div&gt;&lt;div&gt;&lt;span style=&quot;background-color: initial;&quot;&gt;&lt;span style=&quot;white-space: pre;&quot;&gt;&#x9;&lt;/span&gt;- check first pass on whether they are required by the process or not&lt;/span&gt;&lt;/div&gt;&lt;div&gt;2. if the constraints on the type satisfaction are not defined:&lt;/div&gt;&lt;div&gt;&lt;span style=&quot;white-space: pre;&quot;&gt;&#x9;&lt;/span&gt;- add the product types to the list of types requiring satisfaction&lt;br&gt;&lt;/div&gt;&lt;div&gt;3. if not all constraints on type satisfaction have been constrained&lt;/div&gt;&lt;div&gt;&lt;span style=&quot;white-space: pre;&quot;&gt;&#x9;&lt;/span&gt;- pick 1 constraint with the least options and create children nodes for each option&lt;br&gt;&lt;/div&gt;&lt;div&gt;all types constraints are satisfied and constrained&lt;/div&gt;&lt;div&gt;4. if the recipe application counts are not defined:&lt;/div&gt;&lt;div&gt;&lt;span style=&quot;white-space: pre;&quot;&gt;&#x9;&lt;/span&gt;- find counts for all the recipes.&lt;br&gt;&lt;/div&gt;&lt;div&gt;&lt;span style=&quot;white-space: pre;&quot;&gt;&#x9;&lt;/span&gt;- for each option, create a child node with that option chosen&lt;br&gt;&lt;/div&gt;&lt;div&gt;5. if there is byproduct, create a constraint for choosing the handling method&lt;/div&gt;&lt;/div&gt;&lt;div&gt;&lt;span style=&quot;white-space: pre;&quot;&gt;&#x9;&lt;/span&gt;- for each option,&amp;nbsp;&lt;span style=&quot;background-color: initial;&quot;&gt;create a child node with that option chosen&lt;/span&gt;&lt;br&gt;&lt;/div&gt;&lt;div&gt;6. for each option of arm length create a child node with that option chosen&lt;/div&gt;&lt;div&gt;&lt;br&gt;&lt;/div&gt;&lt;div&gt;the final list of constraints are for stage 2&lt;/div&gt;" style="text;html=1;align=left;verticalAlign=top;resizable=0;points=[];autosize=1;horizontal=1;strokeColor=#666666;fillColor=#f5f5f5;fontColor=#333333;spacing=5;spacingTop=-5;" vertex="1" parent="1">
          <mxGeometry x="800" y="960" width="490" height="270" as="geometry" />
        </mxCell>
      </root>
    </mxGraphModel>
  </diagram>
  <diagram name="stage 1" id="O1lDEL0RYun8U3VPtujP">
    <mxGraphModel dx="2284" dy="1944" grid="1" gridSize="10" guides="1" tooltips="1" connect="1" arrows="1" fold="1" page="1" pageScale="1" pageWidth="850" pageHeight="1100" math="0" shadow="0">
      <root>
        <mxCell id="0" />
        <mxCell id="1" parent="0" />
        <mxCell id="2f5kpnx03m0aPBHc0JNv-27" style="edgeStyle=orthogonalEdgeStyle;shape=connector;rounded=0;orthogonalLoop=1;jettySize=auto;html=1;exitX=1;exitY=0.5;exitDx=0;exitDy=0;entryX=0.5;entryY=0;entryDx=0;entryDy=0;strokeColor=default;align=center;verticalAlign=middle;fontFamily=Helvetica;fontSize=11;fontColor=default;labelBackgroundColor=default;endArrow=classic;" parent="1" source="2f5kpnx03m0aPBHc0JNv-1" target="2f5kpnx03m0aPBHc0JNv-4" edge="1">
          <mxGeometry relative="1" as="geometry" />
        </mxCell>
        <mxCell id="2f5kpnx03m0aPBHc0JNv-1" value="evaluate&lt;div&gt;bond constraints&lt;/div&gt;" style="ellipse;whiteSpace=wrap;html=1;fillColor=#e1d5e7;strokeColor=#9673a6;" parent="1" vertex="1">
          <mxGeometry x="40" y="40" width="80" height="80" as="geometry" />
        </mxCell>
        <mxCell id="2f5kpnx03m0aPBHc0JNv-7" style="rounded=0;orthogonalLoop=1;jettySize=auto;html=1;edgeStyle=orthogonalEdgeStyle;entryX=0.5;entryY=0;entryDx=0;entryDy=0;" parent="1" source="2f5kpnx03m0aPBHc0JNv-4" target="2f5kpnx03m0aPBHc0JNv-21" edge="1">
          <mxGeometry relative="1" as="geometry">
            <mxPoint x="280" y="230" as="targetPoint" />
          </mxGeometry>
        </mxCell>
        <mxCell id="2f5kpnx03m0aPBHc0JNv-11" value="yes" style="edgeLabel;html=1;align=center;verticalAlign=middle;resizable=0;points=[];labelBorderColor=default;" parent="2f5kpnx03m0aPBHc0JNv-7" vertex="1" connectable="0">
          <mxGeometry x="0.0224" y="3" relative="1" as="geometry">
            <mxPoint x="47" y="-2" as="offset" />
          </mxGeometry>
        </mxCell>
        <mxCell id="2f5kpnx03m0aPBHc0JNv-9" value="no" style="rounded=0;orthogonalLoop=1;jettySize=auto;html=1;labelBorderColor=default;edgeStyle=orthogonalEdgeStyle;entryX=0.5;entryY=0;entryDx=0;entryDy=0;exitX=0.5;exitY=1;exitDx=0;exitDy=0;" parent="1" source="2f5kpnx03m0aPBHc0JNv-4" target="F3mNECJShz1jMOhZAyXQ-25" edge="1">
          <mxGeometry relative="1" as="geometry">
            <mxPoint x="480" y="250" as="targetPoint" />
            <Array as="points" />
            <mxPoint as="offset" />
          </mxGeometry>
        </mxCell>
        <mxCell id="2f5kpnx03m0aPBHc0JNv-4" value="&lt;span style=&quot;color: rgb(0, 0, 0); font-family: Helvetica; font-size: 12px; font-style: normal; font-variant-ligatures: normal; font-variant-caps: normal; font-weight: 400; letter-spacing: normal; orphans: 2; text-align: center; text-indent: 0px; text-transform: none; widows: 2; word-spacing: 0px; -webkit-text-stroke-width: 0px; white-space: normal; text-decoration-thickness: initial; text-decoration-style: initial; text-decoration-color: initial; float: none; display: inline !important;&quot;&gt;is bonder&lt;/span&gt;&lt;div&gt;&lt;span style=&quot;color: rgb(0, 0, 0); font-family: Helvetica; font-size: 12px; font-style: normal; font-variant-ligatures: normal; font-variant-caps: normal; font-weight: 400; letter-spacing: normal; orphans: 2; text-align: center; text-indent: 0px; text-transform: none; widows: 2; word-spacing: 0px; -webkit-text-stroke-width: 0px; white-space: normal; text-decoration-thickness: initial; text-decoration-style: initial; text-decoration-color: initial; float: none; display: inline !important;&quot;&gt;necessary?&lt;/span&gt;&lt;/div&gt;" style="rhombus;whiteSpace=wrap;html=1;fillColor=#fff2cc;strokeColor=#d6b656;labelBackgroundColor=none;" parent="1" vertex="1">
          <mxGeometry x="660" y="120" width="120" height="80" as="geometry" />
        </mxCell>
        <mxCell id="2f5kpnx03m0aPBHc0JNv-15" style="edgeStyle=orthogonalEdgeStyle;shape=connector;rounded=0;orthogonalLoop=1;jettySize=auto;html=1;strokeColor=default;align=center;verticalAlign=middle;fontFamily=Helvetica;fontSize=11;fontColor=default;labelBackgroundColor=default;endArrow=classic;" parent="1" source="2f5kpnx03m0aPBHc0JNv-4" target="F3mNECJShz1jMOhZAyXQ-29" edge="1">
          <mxGeometry relative="1" as="geometry">
            <mxPoint x="870" y="230" as="targetPoint" />
            <mxPoint x="700" y="160" as="sourcePoint" />
          </mxGeometry>
        </mxCell>
        <mxCell id="2f5kpnx03m0aPBHc0JNv-17" value="unsure" style="edgeLabel;html=1;align=center;verticalAlign=middle;resizable=0;points=[];fontFamily=Helvetica;fontSize=11;fontColor=default;labelBackgroundColor=default;labelBorderColor=default;" parent="2f5kpnx03m0aPBHc0JNv-15" vertex="1" connectable="0">
          <mxGeometry x="-0.1612" y="1" relative="1" as="geometry">
            <mxPoint x="-118" y="1" as="offset" />
          </mxGeometry>
        </mxCell>
        <mxCell id="2f5kpnx03m0aPBHc0JNv-20" value="use both" style="rounded=1;whiteSpace=wrap;html=1;fontFamily=Helvetica;fontSize=11;labelBackgroundColor=none;arcSize=50;fillColor=#f8cecc;strokeColor=#b85450;" parent="1" vertex="1">
          <mxGeometry x="160" y="360" width="80" height="40" as="geometry" />
        </mxCell>
        <mxCell id="F3mNECJShz1jMOhZAyXQ-22" value="yes" style="edgeStyle=orthogonalEdgeStyle;shape=connector;rounded=0;orthogonalLoop=1;jettySize=auto;html=1;exitX=0;exitY=0.5;exitDx=0;exitDy=0;entryX=0.5;entryY=0;entryDx=0;entryDy=0;strokeColor=default;align=center;verticalAlign=middle;fontFamily=Helvetica;fontSize=11;fontColor=default;labelBorderColor=default;labelBackgroundColor=default;endArrow=classic;" parent="1" source="2f5kpnx03m0aPBHc0JNv-21" target="2f5kpnx03m0aPBHc0JNv-20" edge="1">
          <mxGeometry relative="1" as="geometry" />
        </mxCell>
        <mxCell id="F3mNECJShz1jMOhZAyXQ-23" value="no" style="edgeStyle=orthogonalEdgeStyle;shape=connector;rounded=0;orthogonalLoop=1;jettySize=auto;html=1;exitX=0.5;exitY=1;exitDx=0;exitDy=0;strokeColor=default;align=center;verticalAlign=middle;fontFamily=Helvetica;fontSize=11;fontColor=default;labelBorderColor=default;labelBackgroundColor=default;endArrow=classic;" parent="1" source="2f5kpnx03m0aPBHc0JNv-21" target="2f5kpnx03m0aPBHc0JNv-30" edge="1">
          <mxGeometry relative="1" as="geometry" />
        </mxCell>
        <mxCell id="F3mNECJShz1jMOhZAyXQ-24" value="unsure" style="edgeStyle=orthogonalEdgeStyle;shape=connector;rounded=0;orthogonalLoop=1;jettySize=auto;html=1;exitX=1;exitY=0.5;exitDx=0;exitDy=0;strokeColor=default;align=center;verticalAlign=middle;fontFamily=Helvetica;fontSize=11;fontColor=default;labelBorderColor=default;labelBackgroundColor=default;endArrow=classic;entryX=0.5;entryY=0;entryDx=0;entryDy=0;" parent="1" source="2f5kpnx03m0aPBHc0JNv-21" target="F3mNECJShz1jMOhZAyXQ-33" edge="1">
          <mxGeometry relative="1" as="geometry" />
        </mxCell>
        <mxCell id="2f5kpnx03m0aPBHc0JNv-21" value="&lt;span style=&quot;color: rgb(0, 0, 0); font-family: Helvetica; font-size: 12px; font-style: normal; font-variant-ligatures: normal; font-variant-caps: normal; font-weight: 400; letter-spacing: normal; orphans: 2; text-align: center; text-indent: 0px; text-transform: none; widows: 2; word-spacing: 0px; -webkit-text-stroke-width: 0px; white-space: normal; text-decoration-thickness: initial; text-decoration-style: initial; text-decoration-color: initial; float: none; display: inline !important;&quot;&gt;is debonder&lt;/span&gt;&lt;div&gt;&lt;span style=&quot;color: rgb(0, 0, 0); font-family: Helvetica; font-size: 12px; font-style: normal; font-variant-ligatures: normal; font-variant-caps: normal; font-weight: 400; letter-spacing: normal; orphans: 2; text-align: center; text-indent: 0px; text-transform: none; widows: 2; word-spacing: 0px; -webkit-text-stroke-width: 0px; white-space: normal; text-decoration-thickness: initial; text-decoration-style: initial; text-decoration-color: initial; float: none; display: inline !important;&quot;&gt;necessary?&lt;/span&gt;&lt;/div&gt;" style="rhombus;whiteSpace=wrap;html=1;fillColor=#fff2cc;strokeColor=#d6b656;labelBackgroundColor=none;" parent="1" vertex="1">
          <mxGeometry x="260" y="240" width="120" height="80" as="geometry" />
        </mxCell>
        <mxCell id="2f5kpnx03m0aPBHc0JNv-22" value="&lt;div&gt;&lt;span style=&quot;background-color: initial;&quot;&gt;for each product,&lt;/span&gt;&lt;/div&gt;&lt;div&gt;&lt;span style=&quot;background-color: initial;&quot;&gt;check if product can be made from only bonding reagents that match valid conversion types&lt;/span&gt;&lt;/div&gt;" style="rounded=0;whiteSpace=wrap;html=1;fontFamily=Helvetica;fontSize=11;labelBackgroundColor=none;fillColor=#d5e8d4;strokeColor=#82b366;" parent="1" vertex="1">
          <mxGeometry x="400" y="440" width="120" height="80" as="geometry" />
        </mxCell>
        <mxCell id="F3mNECJShz1jMOhZAyXQ-37" style="edgeStyle=orthogonalEdgeStyle;shape=connector;rounded=0;orthogonalLoop=1;jettySize=auto;html=1;exitX=0.5;exitY=1;exitDx=0;exitDy=0;entryX=0.5;entryY=0;entryDx=0;entryDy=0;strokeColor=default;align=center;verticalAlign=middle;fontFamily=Helvetica;fontSize=11;fontColor=default;labelBorderColor=default;labelBackgroundColor=default;endArrow=classic;" parent="1" source="2f5kpnx03m0aPBHc0JNv-23" target="F3mNECJShz1jMOhZAyXQ-36" edge="1">
          <mxGeometry relative="1" as="geometry" />
        </mxCell>
        <mxCell id="2f5kpnx03m0aPBHc0JNv-23" value="&lt;div&gt;first evaluate types&lt;/div&gt;" style="rounded=0;whiteSpace=wrap;html=1;fontFamily=Helvetica;fontSize=11;labelBackgroundColor=none;fillColor=#dae8fc;strokeColor=#6c8ebf;" parent="1" vertex="1">
          <mxGeometry x="960" y="360" width="120" height="40" as="geometry" />
        </mxCell>
        <mxCell id="2f5kpnx03m0aPBHc0JNv-24" value="only debonder" style="rounded=1;whiteSpace=wrap;html=1;fontFamily=Helvetica;fontSize=11;labelBackgroundColor=none;glass=0;arcSize=50;fillColor=#f8cecc;strokeColor=#b85450;" parent="1" vertex="1">
          <mxGeometry x="560" y="360" width="80" height="40" as="geometry" />
        </mxCell>
        <mxCell id="2f5kpnx03m0aPBHc0JNv-26" value="first evaluate types" style="rounded=0;whiteSpace=wrap;html=1;fontFamily=Helvetica;fontSize=11;labelBackgroundColor=none;fillColor=#dae8fc;strokeColor=#6c8ebf;" parent="1" vertex="1">
          <mxGeometry x="800" y="360" width="120" height="40" as="geometry" />
        </mxCell>
        <mxCell id="2f5kpnx03m0aPBHc0JNv-30" value="only bonder" style="rounded=1;whiteSpace=wrap;html=1;fontFamily=Helvetica;fontSize=11;labelBackgroundColor=none;arcSize=50;fillColor=#f8cecc;strokeColor=#b85450;" parent="1" vertex="1">
          <mxGeometry x="280" y="360" width="80" height="40" as="geometry" />
        </mxCell>
        <mxCell id="2f5kpnx03m0aPBHc0JNv-31" value="first evaluate types" style="rounded=0;whiteSpace=wrap;html=1;fontFamily=Helvetica;fontSize=11;labelBackgroundColor=none;fillColor=#dae8fc;strokeColor=#6c8ebf;strokeWidth=1;" parent="1" vertex="1">
          <mxGeometry x="1120" y="360" width="120" height="40" as="geometry" />
        </mxCell>
        <mxCell id="2f5kpnx03m0aPBHc0JNv-32" value="neither" style="rounded=1;whiteSpace=wrap;html=1;fontFamily=Helvetica;fontSize=11;labelBackgroundColor=none;arcSize=50;fillColor=#f8cecc;strokeColor=#b85450;" parent="1" vertex="1">
          <mxGeometry x="680" y="360" width="80" height="40" as="geometry" />
        </mxCell>
        <mxCell id="2f5kpnx03m0aPBHc0JNv-38" style="edgeStyle=orthogonalEdgeStyle;shape=connector;rounded=0;orthogonalLoop=1;jettySize=auto;html=1;strokeColor=default;align=center;verticalAlign=middle;fontFamily=Helvetica;fontSize=11;fontColor=default;labelBackgroundColor=default;endArrow=classic;" parent="1" source="2f5kpnx03m0aPBHc0JNv-36" target="2f5kpnx03m0aPBHc0JNv-40" edge="1">
          <mxGeometry relative="1" as="geometry">
            <mxPoint x="-280" y="80" as="targetPoint" />
            <Array as="points">
              <mxPoint x="-400" y="140" />
            </Array>
          </mxGeometry>
        </mxCell>
        <mxCell id="2f5kpnx03m0aPBHc0JNv-36" value="evaluate&lt;div&gt;type&lt;/div&gt;&lt;div&gt;constraints&lt;/div&gt;" style="ellipse;whiteSpace=wrap;html=1;fillColor=#e1d5e7;strokeColor=#9673a6;" parent="1" vertex="1">
          <mxGeometry x="-440" y="40" width="80" height="80" as="geometry" />
        </mxCell>
        <mxCell id="2f5kpnx03m0aPBHc0JNv-42" style="edgeStyle=orthogonalEdgeStyle;shape=connector;rounded=0;orthogonalLoop=1;jettySize=auto;html=1;strokeColor=default;align=center;verticalAlign=middle;fontFamily=Helvetica;fontSize=11;fontColor=default;labelBackgroundColor=default;endArrow=classic;" parent="1" source="2f5kpnx03m0aPBHc0JNv-36" target="2f5kpnx03m0aPBHc0JNv-41" edge="1">
          <mxGeometry relative="1" as="geometry" />
        </mxCell>
        <mxCell id="2f5kpnx03m0aPBHc0JNv-40" value="find list of all product types&lt;div&gt;&lt;/div&gt;" style="rounded=0;whiteSpace=wrap;html=1;fontFamily=Helvetica;fontSize=11;labelBackgroundColor=none;fillColor=#d5e8d4;strokeColor=#82b366;" parent="1" vertex="1">
          <mxGeometry x="-320" y="120" width="120" height="40" as="geometry" />
        </mxCell>
        <mxCell id="2f5kpnx03m0aPBHc0JNv-44" style="edgeStyle=orthogonalEdgeStyle;shape=connector;rounded=0;orthogonalLoop=1;jettySize=auto;html=1;exitX=1;exitY=0.5;exitDx=0;exitDy=0;strokeColor=default;align=center;verticalAlign=middle;fontFamily=Helvetica;fontSize=11;fontColor=default;labelBackgroundColor=default;endArrow=classic;" parent="1" source="2f5kpnx03m0aPBHc0JNv-41" target="2f5kpnx03m0aPBHc0JNv-43" edge="1">
          <mxGeometry relative="1" as="geometry" />
        </mxCell>
        <mxCell id="2f5kpnx03m0aPBHc0JNv-41" value="find list of all puzzle parts&lt;div&gt;&lt;/div&gt;" style="rounded=0;whiteSpace=wrap;html=1;fontFamily=Helvetica;fontSize=11;labelBackgroundColor=none;fillColor=#d5e8d4;strokeColor=#82b366;" parent="1" vertex="1">
          <mxGeometry x="-320" y="60" width="120" height="40" as="geometry" />
        </mxCell>
        <mxCell id="2f5kpnx03m0aPBHc0JNv-49" style="edgeStyle=orthogonalEdgeStyle;shape=connector;rounded=0;orthogonalLoop=1;jettySize=auto;html=1;exitX=1;exitY=0.5;exitDx=0;exitDy=0;entryX=1;entryY=0.5;entryDx=0;entryDy=0;strokeColor=default;align=center;verticalAlign=middle;fontFamily=Helvetica;fontSize=11;fontColor=default;labelBackgroundColor=default;endArrow=classic;dashed=1;" parent="1" source="2f5kpnx03m0aPBHc0JNv-43" target="2f5kpnx03m0aPBHc0JNv-47" edge="1">
          <mxGeometry relative="1" as="geometry" />
        </mxCell>
        <mxCell id="2f5kpnx03m0aPBHc0JNv-43" value="find list of all&lt;div&gt;relevant recipes&amp;nbsp;&lt;div&gt;&lt;div&gt;&lt;div&gt;&lt;/div&gt;&lt;/div&gt;&lt;/div&gt;&lt;/div&gt;" style="rounded=0;whiteSpace=wrap;html=1;fontFamily=Helvetica;fontSize=11;labelBackgroundColor=none;fillColor=#d5e8d4;strokeColor=#82b366;" parent="1" vertex="1">
          <mxGeometry x="-160" y="60" width="120" height="40" as="geometry" />
        </mxCell>
        <mxCell id="2f5kpnx03m0aPBHc0JNv-45" value="" style="endArrow=classic;html=1;rounded=0;strokeColor=default;align=center;verticalAlign=middle;fontFamily=Helvetica;fontSize=11;fontColor=default;labelBackgroundColor=default;edgeStyle=orthogonalEdgeStyle;fillColor=default;strokeWidth=2;" parent="1" source="2f5kpnx03m0aPBHc0JNv-40" target="2f5kpnx03m0aPBHc0JNv-46" edge="1">
          <mxGeometry width="50" height="50" relative="1" as="geometry">
            <mxPoint x="-190" y="140" as="sourcePoint" />
            <mxPoint x="-100" y="230" as="targetPoint" />
          </mxGeometry>
        </mxCell>
        <mxCell id="2f5kpnx03m0aPBHc0JNv-48" style="edgeStyle=orthogonalEdgeStyle;shape=flexArrow;rounded=0;orthogonalLoop=1;jettySize=auto;html=1;exitX=0.5;exitY=1;exitDx=0;exitDy=0;strokeColor=default;align=center;verticalAlign=middle;fontFamily=Helvetica;fontSize=11;fontColor=default;labelBackgroundColor=default;endArrow=classic;" parent="1" source="2f5kpnx03m0aPBHc0JNv-46" target="2f5kpnx03m0aPBHc0JNv-47" edge="1">
          <mxGeometry relative="1" as="geometry" />
        </mxCell>
        <mxCell id="2f5kpnx03m0aPBHc0JNv-46" value="for each type" style="rounded=0;whiteSpace=wrap;html=1;fontFamily=Helvetica;fontSize=11;labelBackgroundColor=none;fillColor=#d5e8d4;strokeColor=#82b366;" parent="1" vertex="1">
          <mxGeometry x="-160" y="200" width="120" height="40" as="geometry" />
        </mxCell>
        <mxCell id="2f5kpnx03m0aPBHc0JNv-51" style="edgeStyle=orthogonalEdgeStyle;shape=connector;rounded=0;orthogonalLoop=1;jettySize=auto;html=1;exitX=0.5;exitY=1;exitDx=0;exitDy=0;strokeColor=default;align=center;verticalAlign=middle;fontFamily=Helvetica;fontSize=11;fontColor=default;labelBackgroundColor=default;endArrow=classic;" parent="1" source="2f5kpnx03m0aPBHc0JNv-47" target="2f5kpnx03m0aPBHc0JNv-50" edge="1">
          <mxGeometry relative="1" as="geometry" />
        </mxCell>
        <mxCell id="2f5kpnx03m0aPBHc0JNv-47" value="list recipes that&lt;div&gt;produce this type&lt;/div&gt;" style="rounded=0;whiteSpace=wrap;html=1;fontFamily=Helvetica;fontSize=11;labelBackgroundColor=none;fillColor=#d5e8d4;strokeColor=#82b366;" parent="1" vertex="1">
          <mxGeometry x="-160" y="280" width="120" height="40" as="geometry" />
        </mxCell>
        <mxCell id="2f5kpnx03m0aPBHc0JNv-53" style="edgeStyle=orthogonalEdgeStyle;shape=connector;rounded=0;orthogonalLoop=1;jettySize=auto;html=1;exitX=0;exitY=0.5;exitDx=0;exitDy=0;strokeColor=default;align=center;verticalAlign=middle;fontFamily=Helvetica;fontSize=11;fontColor=default;labelBackgroundColor=default;endArrow=classic;strokeWidth=1;" parent="1" source="2f5kpnx03m0aPBHc0JNv-50" target="F3mNECJShz1jMOhZAyXQ-4" edge="1">
          <mxGeometry relative="1" as="geometry" />
        </mxCell>
        <mxCell id="2f5kpnx03m0aPBHc0JNv-57" value="yes" style="edgeLabel;html=1;align=center;verticalAlign=middle;resizable=0;points=[];fontFamily=Helvetica;fontSize=11;fontColor=default;labelBackgroundColor=default;labelBorderColor=default;spacing=2;spacingTop=0;spacingBottom=0;spacingLeft=0;spacingRight=0;" parent="2f5kpnx03m0aPBHc0JNv-53" vertex="1" connectable="0">
          <mxGeometry x="-0.4143" y="-2" relative="1" as="geometry">
            <mxPoint x="-8" y="2" as="offset" />
          </mxGeometry>
        </mxCell>
        <mxCell id="2f5kpnx03m0aPBHc0JNv-61" value="no" style="shape=connector;rounded=0;orthogonalLoop=1;jettySize=auto;html=1;strokeColor=default;align=center;verticalAlign=middle;fontFamily=Helvetica;fontSize=11;fontColor=default;labelBorderColor=default;labelBackgroundColor=default;endArrow=classic;exitX=0.5;exitY=1;exitDx=0;exitDy=0;" parent="1" source="2f5kpnx03m0aPBHc0JNv-50" edge="1">
          <mxGeometry relative="1" as="geometry">
            <mxPoint x="-100" y="480" as="targetPoint" />
          </mxGeometry>
        </mxCell>
        <mxCell id="2f5kpnx03m0aPBHc0JNv-50" value="is there only&lt;div&gt;one recipe?&lt;/div&gt;" style="rhombus;whiteSpace=wrap;html=1;fillColor=#fff2cc;strokeColor=#d6b656;" parent="1" vertex="1">
          <mxGeometry x="-160" y="360" width="120" height="80" as="geometry" />
        </mxCell>
        <mxCell id="2f5kpnx03m0aPBHc0JNv-58" style="edgeStyle=orthogonalEdgeStyle;shape=connector;rounded=0;orthogonalLoop=1;jettySize=auto;html=1;exitX=1;exitY=0.5;exitDx=0;exitDy=0;strokeColor=default;align=center;verticalAlign=middle;fontFamily=Helvetica;fontSize=11;fontColor=default;labelBorderColor=default;labelBackgroundColor=default;endArrow=classic;" parent="1" source="2f5kpnx03m0aPBHc0JNv-52" target="2f5kpnx03m0aPBHc0JNv-55" edge="1">
          <mxGeometry relative="1" as="geometry" />
        </mxCell>
        <mxCell id="2f5kpnx03m0aPBHc0JNv-59" style="edgeStyle=orthogonalEdgeStyle;shape=connector;rounded=0;orthogonalLoop=1;jettySize=auto;html=1;exitX=0.5;exitY=0;exitDx=0;exitDy=0;entryX=0.25;entryY=0;entryDx=0;entryDy=0;strokeColor=default;align=center;verticalAlign=middle;fontFamily=Helvetica;fontSize=11;fontColor=default;labelBorderColor=default;labelBackgroundColor=default;endArrow=classic;" parent="1" source="2f5kpnx03m0aPBHc0JNv-52" target="2f5kpnx03m0aPBHc0JNv-47" edge="1">
          <mxGeometry relative="1" as="geometry">
            <Array as="points">
              <mxPoint x="-420" y="260" />
              <mxPoint x="-130" y="260" />
            </Array>
          </mxGeometry>
        </mxCell>
        <mxCell id="2f5kpnx03m0aPBHc0JNv-52" value="add every type consumed by this recipe to the list" style="rounded=0;whiteSpace=wrap;html=1;fontFamily=Helvetica;fontSize=11;labelBackgroundColor=none;fillColor=#d5e8d4;strokeColor=#82b366;" parent="1" vertex="1">
          <mxGeometry x="-480" y="280" width="120" height="40" as="geometry" />
        </mxCell>
        <mxCell id="2f5kpnx03m0aPBHc0JNv-60" style="edgeStyle=orthogonalEdgeStyle;shape=connector;rounded=0;orthogonalLoop=1;jettySize=auto;html=1;exitX=1;exitY=0.5;exitDx=0;exitDy=0;strokeColor=default;align=center;verticalAlign=middle;fontFamily=Helvetica;fontSize=11;fontColor=default;labelBorderColor=default;labelBackgroundColor=default;endArrow=classic;dashed=1;" parent="1" source="2f5kpnx03m0aPBHc0JNv-55" target="2f5kpnx03m0aPBHc0JNv-47" edge="1">
          <mxGeometry relative="1" as="geometry" />
        </mxCell>
        <mxCell id="2f5kpnx03m0aPBHc0JNv-55" value="forbid added types from using recipes that consume previous types" style="rounded=0;whiteSpace=wrap;html=1;fontFamily=Helvetica;fontSize=11;labelBackgroundColor=none;fillColor=#d5e8d4;strokeColor=#82b366;" parent="1" vertex="1">
          <mxGeometry x="-320" y="270" width="120" height="60" as="geometry" />
        </mxCell>
        <mxCell id="F3mNECJShz1jMOhZAyXQ-3" value="yes" style="edgeStyle=orthogonalEdgeStyle;shape=connector;rounded=0;orthogonalLoop=1;jettySize=auto;html=1;exitX=0;exitY=0.5;exitDx=0;exitDy=0;strokeColor=default;align=center;verticalAlign=middle;fontFamily=Helvetica;fontSize=11;fontColor=default;labelBorderColor=default;labelBackgroundColor=default;endArrow=classic;" parent="1" source="F3mNECJShz1jMOhZAyXQ-2" target="F3mNECJShz1jMOhZAyXQ-6" edge="1">
          <mxGeometry relative="1" as="geometry">
            <mxPoint x="-240" y="520.3333333333335" as="targetPoint" />
          </mxGeometry>
        </mxCell>
        <mxCell id="F3mNECJShz1jMOhZAyXQ-10" value="no" style="edgeStyle=orthogonalEdgeStyle;shape=connector;rounded=0;orthogonalLoop=1;jettySize=auto;html=1;exitX=0.5;exitY=1;exitDx=0;exitDy=0;strokeColor=default;align=center;verticalAlign=middle;fontFamily=Helvetica;fontSize=11;fontColor=default;labelBorderColor=default;labelBackgroundColor=default;endArrow=classic;entryX=1;entryY=0.5;entryDx=0;entryDy=0;" parent="1" source="F3mNECJShz1jMOhZAyXQ-2" target="F3mNECJShz1jMOhZAyXQ-9" edge="1">
          <mxGeometry relative="1" as="geometry">
            <mxPoint x="-2.2737367544323206e-13" y="520.0689655172414" as="targetPoint" />
          </mxGeometry>
        </mxCell>
        <mxCell id="F3mNECJShz1jMOhZAyXQ-2" value="is there only&lt;div&gt;one part among the recipes?&lt;/div&gt;" style="rhombus;whiteSpace=wrap;html=1;fillColor=#fff2cc;strokeColor=#d6b656;" parent="1" vertex="1">
          <mxGeometry x="-160" y="480" width="120" height="80" as="geometry" />
        </mxCell>
        <mxCell id="F3mNECJShz1jMOhZAyXQ-5" style="edgeStyle=orthogonalEdgeStyle;shape=connector;rounded=0;orthogonalLoop=1;jettySize=auto;html=1;exitX=0;exitY=0.5;exitDx=0;exitDy=0;strokeColor=default;align=center;verticalAlign=middle;fontFamily=Helvetica;fontSize=11;fontColor=default;labelBorderColor=default;labelBackgroundColor=none;endArrow=classic;" parent="1" source="F3mNECJShz1jMOhZAyXQ-4" target="2f5kpnx03m0aPBHc0JNv-52" edge="1">
          <mxGeometry relative="1" as="geometry" />
        </mxCell>
        <mxCell id="F3mNECJShz1jMOhZAyXQ-4" value="the part from this recipe is necessary" style="rounded=0;whiteSpace=wrap;html=1;fontFamily=Helvetica;fontSize=11;labelBackgroundColor=none;fillColor=#d5e8d4;strokeColor=#82b366;" parent="1" vertex="1">
          <mxGeometry x="-320" y="380" width="120" height="40" as="geometry" />
        </mxCell>
        <mxCell id="F3mNECJShz1jMOhZAyXQ-8" style="edgeStyle=orthogonalEdgeStyle;shape=connector;rounded=0;orthogonalLoop=1;jettySize=auto;html=1;strokeColor=default;align=center;verticalAlign=middle;fontFamily=Helvetica;fontSize=11;fontColor=default;labelBorderColor=default;labelBackgroundColor=none;endArrow=classic;" parent="1" source="F3mNECJShz1jMOhZAyXQ-6" target="F3mNECJShz1jMOhZAyXQ-9" edge="1">
          <mxGeometry relative="1" as="geometry">
            <mxPoint x="-370" y="520.3333333333335" as="targetPoint" />
          </mxGeometry>
        </mxCell>
        <mxCell id="F3mNECJShz1jMOhZAyXQ-6" value="the part from this recipe is necessary" style="rounded=0;whiteSpace=wrap;html=1;fontFamily=Helvetica;fontSize=11;labelBackgroundColor=none;fillColor=#d5e8d4;strokeColor=#82b366;" parent="1" vertex="1">
          <mxGeometry x="-320" y="500" width="120" height="40" as="geometry" />
        </mxCell>
        <mxCell id="F3mNECJShz1jMOhZAyXQ-9" value="store list of recipes for unsolved satisfaction of this type" style="rounded=0;whiteSpace=wrap;html=1;fontFamily=Helvetica;fontSize=11;labelBackgroundColor=none;fillColor=#d5e8d4;strokeColor=#82b366;" parent="1" vertex="1">
          <mxGeometry x="-320" y="570" width="120" height="40" as="geometry" />
        </mxCell>
        <mxCell id="F3mNECJShz1jMOhZAyXQ-44" value="no" style="edgeStyle=orthogonalEdgeStyle;shape=connector;rounded=0;orthogonalLoop=1;jettySize=auto;html=1;exitX=1;exitY=0.5;exitDx=0;exitDy=0;strokeColor=default;align=center;verticalAlign=middle;fontFamily=Helvetica;fontSize=11;fontColor=default;labelBorderColor=default;labelBackgroundColor=default;endArrow=classic;" parent="1" source="F3mNECJShz1jMOhZAyXQ-20" target="F3mNECJShz1jMOhZAyXQ-46" edge="1">
          <mxGeometry relative="1" as="geometry">
            <mxPoint x="1460" y="500" as="targetPoint" />
          </mxGeometry>
        </mxCell>
        <mxCell id="F3mNECJShz1jMOhZAyXQ-45" value="yes" style="edgeStyle=orthogonalEdgeStyle;shape=connector;rounded=0;orthogonalLoop=1;jettySize=auto;html=1;exitX=0.5;exitY=1;exitDx=0;exitDy=0;strokeColor=default;align=center;verticalAlign=middle;fontFamily=Helvetica;fontSize=11;fontColor=default;labelBorderColor=default;labelBackgroundColor=default;endArrow=classic;" parent="1" source="F3mNECJShz1jMOhZAyXQ-20" target="F3mNECJShz1jMOhZAyXQ-70" edge="1">
          <mxGeometry relative="1" as="geometry">
            <mxPoint x="1339.7142857142858" y="610" as="targetPoint" />
          </mxGeometry>
        </mxCell>
        <mxCell id="F3mNECJShz1jMOhZAyXQ-20" value="are&amp;nbsp;&lt;span style=&quot;background-color: initial;&quot;&gt;there&amp;nbsp;&lt;/span&gt;&lt;span style=&quot;background-color: initial;&quot;&gt;any&lt;/span&gt;&lt;div&gt;&lt;span style=&quot;background-color: initial;&quot;&gt;reagents&amp;nbsp;&lt;/span&gt;&lt;span style=&quot;background-color: initial;&quot;&gt;that match&amp;nbsp;&lt;/span&gt;&lt;span style=&quot;background-color: initial;&quot;&gt;the shape&amp;nbsp;&lt;/span&gt;&lt;span style=&quot;background-color: initial;&quot;&gt;and&amp;nbsp;&lt;/span&gt;&lt;span style=&quot;background-color: initial;&quot;&gt;size&amp;nbsp;&lt;/span&gt;&lt;span style=&quot;background-color: initial;&quot;&gt;of the&amp;nbsp;&lt;/span&gt;&lt;span style=&quot;background-color: initial;&quot;&gt;product?&lt;/span&gt;&lt;/div&gt;" style="rhombus;whiteSpace=wrap;html=1;fillColor=#fff2cc;strokeColor=#d6b656;labelBackgroundColor=none;" parent="1" vertex="1">
          <mxGeometry x="1260" y="440" width="160" height="120" as="geometry" />
        </mxCell>
        <mxCell id="F3mNECJShz1jMOhZAyXQ-26" value="no" style="edgeStyle=orthogonalEdgeStyle;shape=connector;rounded=0;orthogonalLoop=1;jettySize=auto;html=1;exitX=0.5;exitY=1;exitDx=0;exitDy=0;entryX=0.5;entryY=0;entryDx=0;entryDy=0;strokeColor=default;align=center;verticalAlign=middle;fontFamily=Helvetica;fontSize=11;fontColor=default;labelBorderColor=default;labelBackgroundColor=default;endArrow=classic;" parent="1" source="F3mNECJShz1jMOhZAyXQ-25" target="2f5kpnx03m0aPBHc0JNv-32" edge="1">
          <mxGeometry relative="1" as="geometry" />
        </mxCell>
        <mxCell id="F3mNECJShz1jMOhZAyXQ-27" value="yes" style="edgeStyle=orthogonalEdgeStyle;shape=connector;rounded=0;orthogonalLoop=1;jettySize=auto;html=1;exitX=0;exitY=0.5;exitDx=0;exitDy=0;strokeColor=default;align=center;verticalAlign=middle;fontFamily=Helvetica;fontSize=11;fontColor=default;labelBorderColor=default;labelBackgroundColor=default;endArrow=classic;" parent="1" source="F3mNECJShz1jMOhZAyXQ-25" target="2f5kpnx03m0aPBHc0JNv-24" edge="1">
          <mxGeometry relative="1" as="geometry" />
        </mxCell>
        <mxCell id="F3mNECJShz1jMOhZAyXQ-28" value="unsure" style="edgeStyle=orthogonalEdgeStyle;shape=connector;rounded=0;orthogonalLoop=1;jettySize=auto;html=1;exitX=1;exitY=0.5;exitDx=0;exitDy=0;strokeColor=default;align=center;verticalAlign=middle;fontFamily=Helvetica;fontSize=11;fontColor=default;labelBorderColor=default;labelBackgroundColor=default;endArrow=classic;" parent="1" source="F3mNECJShz1jMOhZAyXQ-25" target="2f5kpnx03m0aPBHc0JNv-26" edge="1">
          <mxGeometry relative="1" as="geometry" />
        </mxCell>
        <mxCell id="F3mNECJShz1jMOhZAyXQ-25" value="&lt;span style=&quot;color: rgb(0, 0, 0); font-family: Helvetica; font-size: 12px; font-style: normal; font-variant-ligatures: normal; font-variant-caps: normal; font-weight: 400; letter-spacing: normal; orphans: 2; text-align: center; text-indent: 0px; text-transform: none; widows: 2; word-spacing: 0px; -webkit-text-stroke-width: 0px; white-space: normal; text-decoration-thickness: initial; text-decoration-style: initial; text-decoration-color: initial; float: none; display: inline !important;&quot;&gt;is debonder&lt;/span&gt;&lt;div&gt;&lt;span style=&quot;color: rgb(0, 0, 0); font-family: Helvetica; font-size: 12px; font-style: normal; font-variant-ligatures: normal; font-variant-caps: normal; font-weight: 400; letter-spacing: normal; orphans: 2; text-align: center; text-indent: 0px; text-transform: none; widows: 2; word-spacing: 0px; -webkit-text-stroke-width: 0px; white-space: normal; text-decoration-thickness: initial; text-decoration-style: initial; text-decoration-color: initial; float: none; display: inline !important;&quot;&gt;necessary?&lt;/span&gt;&lt;/div&gt;" style="rhombus;whiteSpace=wrap;html=1;fillColor=#fff2cc;strokeColor=#d6b656;labelBackgroundColor=none;" parent="1" vertex="1">
          <mxGeometry x="660" y="240" width="120" height="80" as="geometry" />
        </mxCell>
        <mxCell id="F3mNECJShz1jMOhZAyXQ-30" value="no" style="edgeStyle=orthogonalEdgeStyle;shape=connector;rounded=0;orthogonalLoop=1;jettySize=auto;html=1;exitX=0.5;exitY=1;exitDx=0;exitDy=0;strokeColor=default;align=center;verticalAlign=middle;fontFamily=Helvetica;fontSize=11;fontColor=default;labelBorderColor=default;labelBackgroundColor=default;endArrow=classic;" parent="1" source="F3mNECJShz1jMOhZAyXQ-29" target="2f5kpnx03m0aPBHc0JNv-31" edge="1">
          <mxGeometry relative="1" as="geometry" />
        </mxCell>
        <mxCell id="F3mNECJShz1jMOhZAyXQ-31" value="yes" style="edgeStyle=orthogonalEdgeStyle;shape=connector;rounded=0;orthogonalLoop=1;jettySize=auto;html=1;exitX=0;exitY=0.5;exitDx=0;exitDy=0;strokeColor=default;align=center;verticalAlign=middle;fontFamily=Helvetica;fontSize=11;fontColor=default;labelBorderColor=default;labelBackgroundColor=default;endArrow=classic;" parent="1" source="F3mNECJShz1jMOhZAyXQ-29" target="2f5kpnx03m0aPBHc0JNv-23" edge="1">
          <mxGeometry relative="1" as="geometry" />
        </mxCell>
        <mxCell id="F3mNECJShz1jMOhZAyXQ-32" value="unsure" style="edgeStyle=orthogonalEdgeStyle;shape=connector;rounded=0;orthogonalLoop=1;jettySize=auto;html=1;exitX=1;exitY=0.5;exitDx=0;exitDy=0;strokeColor=default;align=center;verticalAlign=middle;fontFamily=Helvetica;fontSize=11;fontColor=default;labelBorderColor=default;labelBackgroundColor=default;endArrow=classic;" parent="1" source="F3mNECJShz1jMOhZAyXQ-29" edge="1">
          <mxGeometry relative="1" as="geometry">
            <mxPoint x="1340" y="360" as="targetPoint" />
          </mxGeometry>
        </mxCell>
        <mxCell id="F3mNECJShz1jMOhZAyXQ-29" value="&lt;span style=&quot;color: rgb(0, 0, 0); font-family: Helvetica; font-size: 12px; font-style: normal; font-variant-ligatures: normal; font-variant-caps: normal; font-weight: 400; letter-spacing: normal; orphans: 2; text-align: center; text-indent: 0px; text-transform: none; widows: 2; word-spacing: 0px; -webkit-text-stroke-width: 0px; white-space: normal; text-decoration-thickness: initial; text-decoration-style: initial; text-decoration-color: initial; float: none; display: inline !important;&quot;&gt;is debonder&lt;/span&gt;&lt;div&gt;&lt;span style=&quot;color: rgb(0, 0, 0); font-family: Helvetica; font-size: 12px; font-style: normal; font-variant-ligatures: normal; font-variant-caps: normal; font-weight: 400; letter-spacing: normal; orphans: 2; text-align: center; text-indent: 0px; text-transform: none; widows: 2; word-spacing: 0px; -webkit-text-stroke-width: 0px; white-space: normal; text-decoration-thickness: initial; text-decoration-style: initial; text-decoration-color: initial; float: none; display: inline !important;&quot;&gt;necessary?&lt;/span&gt;&lt;/div&gt;" style="rhombus;whiteSpace=wrap;html=1;fillColor=#fff2cc;strokeColor=#d6b656;labelBackgroundColor=none;" parent="1" vertex="1">
          <mxGeometry x="1120" y="240" width="120" height="80" as="geometry" />
        </mxCell>
        <mxCell id="F3mNECJShz1jMOhZAyXQ-35" style="edgeStyle=orthogonalEdgeStyle;shape=connector;rounded=0;orthogonalLoop=1;jettySize=auto;html=1;exitX=0.5;exitY=1;exitDx=0;exitDy=0;strokeColor=default;align=center;verticalAlign=middle;fontFamily=Helvetica;fontSize=11;fontColor=default;labelBorderColor=default;labelBackgroundColor=default;endArrow=classic;" parent="1" source="F3mNECJShz1jMOhZAyXQ-33" target="2f5kpnx03m0aPBHc0JNv-22" edge="1">
          <mxGeometry relative="1" as="geometry" />
        </mxCell>
        <mxCell id="F3mNECJShz1jMOhZAyXQ-33" value="&lt;div&gt;first evaluate types&lt;/div&gt;" style="rounded=0;whiteSpace=wrap;html=1;fontFamily=Helvetica;fontSize=11;labelBackgroundColor=none;fillColor=#dae8fc;strokeColor=#6c8ebf;strokeWidth=1;" parent="1" vertex="1">
          <mxGeometry x="400" y="360" width="120" height="40" as="geometry" />
        </mxCell>
        <mxCell id="F3mNECJShz1jMOhZAyXQ-36" value="&lt;div&gt;&lt;span style=&quot;background-color: initial;&quot;&gt;for each product,&lt;/span&gt;&lt;/div&gt;&lt;div&gt;&lt;span style=&quot;background-color: initial;&quot;&gt;check if product can be made from only debonding&lt;/span&gt;&lt;br&gt;&lt;/div&gt;" style="rounded=0;whiteSpace=wrap;html=1;fontFamily=Helvetica;fontSize=11;labelBackgroundColor=none;fillColor=#d5e8d4;strokeColor=#82b366;" parent="1" vertex="1">
          <mxGeometry x="960" y="440" width="120" height="60" as="geometry" />
        </mxCell>
        <mxCell id="F3mNECJShz1jMOhZAyXQ-43" style="edgeStyle=orthogonalEdgeStyle;shape=flexArrow;rounded=0;orthogonalLoop=1;jettySize=auto;html=1;exitX=0.5;exitY=1;exitDx=0;exitDy=0;entryX=0.5;entryY=0;entryDx=0;entryDy=0;strokeColor=default;align=center;verticalAlign=middle;fontFamily=Helvetica;fontSize=11;fontColor=default;labelBorderColor=default;labelBackgroundColor=default;endArrow=classic;" parent="1" source="F3mNECJShz1jMOhZAyXQ-42" target="F3mNECJShz1jMOhZAyXQ-20" edge="1">
          <mxGeometry relative="1" as="geometry" />
        </mxCell>
        <mxCell id="F3mNECJShz1jMOhZAyXQ-42" value="&lt;div&gt;for each product&lt;/div&gt;" style="rounded=0;whiteSpace=wrap;html=1;fontFamily=Helvetica;fontSize=11;labelBackgroundColor=none;fillColor=#d5e8d4;strokeColor=#82b366;" parent="1" vertex="1">
          <mxGeometry x="1280" y="360" width="120" height="40" as="geometry" />
        </mxCell>
        <mxCell id="F3mNECJShz1jMOhZAyXQ-74" style="edgeStyle=orthogonalEdgeStyle;shape=connector;rounded=0;orthogonalLoop=1;jettySize=auto;html=1;exitX=0.5;exitY=0;exitDx=0;exitDy=0;entryX=0.5;entryY=1;entryDx=0;entryDy=0;strokeColor=default;align=center;verticalAlign=middle;fontFamily=Helvetica;fontSize=11;fontColor=default;labelBorderColor=default;labelBackgroundColor=default;endArrow=classic;" parent="1" source="F3mNECJShz1jMOhZAyXQ-46" target="F3mNECJShz1jMOhZAyXQ-73" edge="1">
          <mxGeometry relative="1" as="geometry" />
        </mxCell>
        <mxCell id="F3mNECJShz1jMOhZAyXQ-46" value="&lt;div&gt;at least a bonder or a debonder is required&lt;/div&gt;" style="rounded=0;whiteSpace=wrap;html=1;fontFamily=Helvetica;fontSize=11;labelBackgroundColor=none;fillColor=#d5e8d4;strokeColor=#82b366;" parent="1" vertex="1">
          <mxGeometry x="1480" y="480" width="120" height="40" as="geometry" />
        </mxCell>
        <mxCell id="F3mNECJShz1jMOhZAyXQ-50" style="shape=connector;rounded=0;orthogonalLoop=1;jettySize=auto;html=1;strokeColor=#FF0000;align=center;verticalAlign=middle;fontFamily=Helvetica;fontSize=11;fontColor=default;labelBorderColor=default;labelBackgroundColor=default;endArrow=classic;strokeWidth=5;" parent="1" source="F3mNECJShz1jMOhZAyXQ-49" target="2f5kpnx03m0aPBHc0JNv-31" edge="1">
          <mxGeometry relative="1" as="geometry" />
        </mxCell>
        <mxCell id="F3mNECJShz1jMOhZAyXQ-49" value="debonder=no&lt;div&gt;means all reagents are one atom&lt;div&gt;bonder=unsure&lt;/div&gt;&lt;div&gt;means not all products are one atom&lt;/div&gt;&lt;div&gt;and not (every reagent is smaller than any product)&lt;/div&gt;&lt;div&gt;which equivolates to (no product is larger than every reagent)&lt;/div&gt;&lt;div&gt;this is a &lt;u style=&quot;&quot;&gt;contradiction&lt;/u&gt;&lt;/div&gt;&lt;div&gt;&lt;br&gt;&lt;/div&gt;&lt;/div&gt;" style="text;html=1;align=left;verticalAlign=top;whiteSpace=wrap;rounded=0;fontFamily=Helvetica;fontSize=11;labelBorderColor=none;labelBackgroundColor=none;strokeColor=#FF0000;fillColor=#f8cecc;strokeWidth=4;spacingLeft=0;spacing=5;" parent="1" vertex="1">
          <mxGeometry x="1280" y="40" width="320" height="120" as="geometry" />
        </mxCell>
        <mxCell id="F3mNECJShz1jMOhZAyXQ-52" style="shape=connector;rounded=0;orthogonalLoop=1;jettySize=auto;html=1;strokeColor=#009900;align=center;verticalAlign=middle;fontFamily=Helvetica;fontSize=11;fontColor=default;labelBorderColor=default;labelBackgroundColor=default;endArrow=classic;strokeWidth=3;" parent="1" source="F3mNECJShz1jMOhZAyXQ-51" target="F3mNECJShz1jMOhZAyXQ-33" edge="1">
          <mxGeometry relative="1" as="geometry" />
        </mxCell>
        <mxCell id="F3mNECJShz1jMOhZAyXQ-51" value="test: 493" style="text;html=1;align=center;verticalAlign=middle;whiteSpace=wrap;rounded=0;fontFamily=Helvetica;fontSize=11;labelBorderColor=none;labelBackgroundColor=none;fillColor=#FFFFFF;strokeColor=#009900;strokeWidth=5;" parent="1" vertex="1">
          <mxGeometry x="480" y="310" width="60" height="30" as="geometry" />
        </mxCell>
        <mxCell id="F3mNECJShz1jMOhZAyXQ-54" style="shape=connector;rounded=0;orthogonalLoop=1;jettySize=auto;html=1;strokeColor=#009900;align=center;verticalAlign=middle;fontFamily=Helvetica;fontSize=11;fontColor=default;labelBorderColor=default;labelBackgroundColor=default;endArrow=classic;strokeWidth=3;" parent="1" source="F3mNECJShz1jMOhZAyXQ-53" target="2f5kpnx03m0aPBHc0JNv-30" edge="1">
          <mxGeometry relative="1" as="geometry" />
        </mxCell>
        <mxCell id="F3mNECJShz1jMOhZAyXQ-53" value="test: 322" style="text;html=1;align=center;verticalAlign=middle;whiteSpace=wrap;rounded=0;fontFamily=Helvetica;fontSize=11;labelBorderColor=none;labelBackgroundColor=none;fillColor=#FFFFFF;strokeColor=#009900;strokeWidth=5;" parent="1" vertex="1">
          <mxGeometry x="340" y="310" width="60" height="30" as="geometry" />
        </mxCell>
        <mxCell id="F3mNECJShz1jMOhZAyXQ-56" style="edgeStyle=none;shape=connector;rounded=0;orthogonalLoop=1;jettySize=auto;html=1;strokeColor=#009900;strokeWidth=3;align=center;verticalAlign=middle;fontFamily=Helvetica;fontSize=11;fontColor=default;labelBorderColor=default;labelBackgroundColor=default;endArrow=classic;" parent="1" source="F3mNECJShz1jMOhZAyXQ-55" target="2f5kpnx03m0aPBHc0JNv-23" edge="1">
          <mxGeometry relative="1" as="geometry" />
        </mxCell>
        <mxCell id="F3mNECJShz1jMOhZAyXQ-55" value="test: 89" style="text;html=1;align=center;verticalAlign=middle;whiteSpace=wrap;rounded=0;fontFamily=Helvetica;fontSize=11;labelBorderColor=none;labelBackgroundColor=none;fillColor=#FFFFFF;strokeColor=#009900;strokeWidth=5;" parent="1" vertex="1">
          <mxGeometry x="1040" y="310" width="60" height="30" as="geometry" />
        </mxCell>
        <mxCell id="F3mNECJShz1jMOhZAyXQ-58" style="edgeStyle=none;shape=connector;rounded=0;orthogonalLoop=1;jettySize=auto;html=1;strokeColor=#009900;strokeWidth=3;align=center;verticalAlign=middle;fontFamily=Helvetica;fontSize=11;fontColor=default;labelBorderColor=default;labelBackgroundColor=default;endArrow=classic;" parent="1" source="F3mNECJShz1jMOhZAyXQ-57" target="2f5kpnx03m0aPBHc0JNv-24" edge="1">
          <mxGeometry relative="1" as="geometry" />
        </mxCell>
        <mxCell id="F3mNECJShz1jMOhZAyXQ-57" value="test: 81" style="text;html=1;align=center;verticalAlign=middle;whiteSpace=wrap;rounded=0;fontFamily=Helvetica;fontSize=11;labelBorderColor=none;labelBackgroundColor=none;fillColor=#FFFFFF;strokeColor=#009900;strokeWidth=5;" parent="1" vertex="1">
          <mxGeometry x="620" y="310" width="60" height="30" as="geometry" />
        </mxCell>
        <mxCell id="F3mNECJShz1jMOhZAyXQ-60" style="edgeStyle=none;shape=connector;rounded=0;orthogonalLoop=1;jettySize=auto;html=1;strokeColor=#009900;strokeWidth=3;align=center;verticalAlign=middle;fontFamily=Helvetica;fontSize=11;fontColor=default;labelBorderColor=default;labelBackgroundColor=default;endArrow=classic;" parent="1" source="F3mNECJShz1jMOhZAyXQ-59" target="F3mNECJShz1jMOhZAyXQ-42" edge="1">
          <mxGeometry relative="1" as="geometry" />
        </mxCell>
        <mxCell id="F3mNECJShz1jMOhZAyXQ-59" value="test: 15" style="text;html=1;align=center;verticalAlign=middle;whiteSpace=wrap;rounded=0;fontFamily=Helvetica;fontSize=11;labelBorderColor=none;labelBackgroundColor=none;fillColor=#FFFFFF;strokeColor=#009900;strokeWidth=5;" parent="1" vertex="1">
          <mxGeometry x="1360" y="310" width="60" height="30" as="geometry" />
        </mxCell>
        <mxCell id="F3mNECJShz1jMOhZAyXQ-69" style="shape=connector;rounded=0;orthogonalLoop=1;jettySize=auto;html=1;strokeColor=#d79b00;align=center;verticalAlign=middle;fontFamily=Helvetica;fontSize=11;fontColor=default;labelBorderColor=default;labelBackgroundColor=default;endArrow=classic;fillColor=#ffe6cc;strokeWidth=3;" parent="1" source="F3mNECJShz1jMOhZAyXQ-61" target="2f5kpnx03m0aPBHc0JNv-20" edge="1">
          <mxGeometry relative="1" as="geometry" />
        </mxCell>
        <mxCell id="F3mNECJShz1jMOhZAyXQ-61" value="bonder=yes&lt;div&gt;means at least one product is larger than all reagents&lt;div&gt;debonder=yes&lt;/div&gt;&lt;div&gt;means at least one product is smaller than all reagents&lt;/div&gt;&lt;div&gt;&lt;br&gt;&lt;/div&gt;&lt;div&gt;this implies:&lt;/div&gt;&lt;div&gt;more than 1 product&lt;/div&gt;&lt;div&gt;all reagents have 2 or more atoms&lt;/div&gt;&lt;div&gt;the sizes of the largest and smallest products bound the possible sizes of the reagents&lt;/div&gt;&lt;div&gt;&lt;br&gt;&lt;/div&gt;&lt;/div&gt;" style="text;html=1;align=left;verticalAlign=top;whiteSpace=wrap;rounded=0;fontFamily=Helvetica;fontSize=11;labelBorderColor=none;labelBackgroundColor=none;strokeColor=#d79b00;fillColor=#ffe6cc;strokeWidth=5;spacingLeft=0;spacing=5;" parent="1" vertex="1">
          <mxGeometry x="40" y="440" width="320" height="160" as="geometry" />
        </mxCell>
        <mxCell id="F3mNECJShz1jMOhZAyXQ-63" style="edgeStyle=none;shape=connector;rounded=0;orthogonalLoop=1;jettySize=auto;html=1;strokeColor=#FF0000;strokeWidth=5;align=center;verticalAlign=middle;fontFamily=Helvetica;fontSize=11;fontColor=default;labelBorderColor=default;labelBackgroundColor=default;endArrow=classic;" parent="1" source="F3mNECJShz1jMOhZAyXQ-62" target="2f5kpnx03m0aPBHc0JNv-26" edge="1">
          <mxGeometry relative="1" as="geometry" />
        </mxCell>
        <mxCell id="F3mNECJShz1jMOhZAyXQ-62" value="bonder=no&lt;div&gt;means all products are one atom&lt;div&gt;debonder=unsure&lt;/div&gt;&lt;div&gt;means not all reagents are one atom&lt;/div&gt;&lt;div&gt;and not (every reagent is larger than any product)&lt;/div&gt;&lt;div&gt;which equivolates to (no product is smaller than every reagent)&lt;/div&gt;&lt;div&gt;this is a &lt;u style=&quot;&quot;&gt;contradiction&lt;/u&gt;&lt;/div&gt;&lt;div&gt;&lt;br&gt;&lt;/div&gt;&lt;/div&gt;" style="text;html=1;align=left;verticalAlign=top;whiteSpace=wrap;rounded=0;fontFamily=Helvetica;fontSize=11;labelBorderColor=none;labelBackgroundColor=none;strokeColor=#FF0000;fillColor=#f8cecc;strokeWidth=4;spacingLeft=0;spacing=5;" parent="1" vertex="1">
          <mxGeometry x="800" width="320" height="120" as="geometry" />
        </mxCell>
        <mxCell id="F3mNECJShz1jMOhZAyXQ-68" style="edgeStyle=orthogonalEdgeStyle;shape=connector;rounded=0;orthogonalLoop=1;jettySize=auto;html=1;exitX=0.5;exitY=0;exitDx=0;exitDy=0;strokeColor=#d79b00;align=center;verticalAlign=middle;fontFamily=Helvetica;fontSize=11;fontColor=default;labelBorderColor=default;labelBackgroundColor=default;endArrow=classic;fillColor=#ffe6cc;strokeWidth=3;" parent="1" source="F3mNECJShz1jMOhZAyXQ-65" target="2f5kpnx03m0aPBHc0JNv-32" edge="1">
          <mxGeometry relative="1" as="geometry" />
        </mxCell>
        <mxCell id="F3mNECJShz1jMOhZAyXQ-65" value="&lt;div&gt;every IO molecule is a single atom&lt;/div&gt;" style="rounded=0;whiteSpace=wrap;html=1;fontFamily=Helvetica;fontSize=11;labelBackgroundColor=none;fillColor=#ffe6cc;strokeColor=#d79b00;strokeWidth=5;" parent="1" vertex="1">
          <mxGeometry x="680" y="440" width="80" height="60" as="geometry" />
        </mxCell>
        <mxCell id="F3mNECJShz1jMOhZAyXQ-72" style="edgeStyle=orthogonalEdgeStyle;shape=connector;rounded=0;orthogonalLoop=1;jettySize=auto;html=1;exitX=0.5;exitY=1;exitDx=0;exitDy=0;strokeColor=default;align=center;verticalAlign=middle;fontFamily=Helvetica;fontSize=11;fontColor=default;labelBorderColor=default;labelBackgroundColor=default;endArrow=classic;" parent="1" source="F3mNECJShz1jMOhZAyXQ-70" target="F3mNECJShz1jMOhZAyXQ-71" edge="1">
          <mxGeometry relative="1" as="geometry" />
        </mxCell>
        <mxCell id="F3mNECJShz1jMOhZAyXQ-70" value="&lt;div&gt;it may be possible to only convert a reagent for this product&lt;/div&gt;" style="rounded=0;whiteSpace=wrap;html=1;fontFamily=Helvetica;fontSize=11;labelBackgroundColor=none;fillColor=#d5e8d4;strokeColor=#82b366;" parent="1" vertex="1">
          <mxGeometry x="1280" y="600" width="120" height="40" as="geometry" />
        </mxCell>
        <mxCell id="F3mNECJShz1jMOhZAyXQ-71" value="first evaluate types" style="rounded=0;whiteSpace=wrap;html=1;fontFamily=Helvetica;fontSize=11;labelBackgroundColor=none;fillColor=#dae8fc;strokeColor=#6c8ebf;strokeWidth=1;" parent="1" vertex="1">
          <mxGeometry x="1280" y="680" width="120" height="40" as="geometry" />
        </mxCell>
        <mxCell id="F3mNECJShz1jMOhZAyXQ-75" style="edgeStyle=orthogonalEdgeStyle;shape=connector;rounded=0;orthogonalLoop=1;jettySize=auto;html=1;exitX=0;exitY=0.5;exitDx=0;exitDy=0;entryX=0.75;entryY=1;entryDx=0;entryDy=0;strokeColor=default;align=center;verticalAlign=middle;fontFamily=Helvetica;fontSize=11;fontColor=default;labelBorderColor=default;labelBackgroundColor=default;endArrow=classic;dashed=1;" parent="1" source="F3mNECJShz1jMOhZAyXQ-73" target="F3mNECJShz1jMOhZAyXQ-42" edge="1">
          <mxGeometry relative="1" as="geometry" />
        </mxCell>
        <mxCell id="F3mNECJShz1jMOhZAyXQ-73" value="&lt;div&gt;stop iterating every product&lt;/div&gt;" style="rounded=0;whiteSpace=wrap;html=1;fontFamily=Helvetica;fontSize=11;labelBackgroundColor=none;fillColor=#d5e8d4;strokeColor=#82b366;" parent="1" vertex="1">
          <mxGeometry x="1480" y="400" width="120" height="40" as="geometry" />
        </mxCell>
        <mxCell id="F3mNECJShz1jMOhZAyXQ-77" value="On the second pass of considering bonder/debonder requirements, guarantees are required that the type partlist will not grow.&lt;div&gt;&lt;br&gt;&lt;/div&gt;&lt;div&gt;Because in some cases, a debonder may be required because a type cannot be produced without debonding the only available consumer type for that glyph. If another glyph is added to produce that same type, the reasoning becomes invalid.&lt;/div&gt;" style="text;html=1;align=left;verticalAlign=top;whiteSpace=wrap;rounded=0;fontFamily=Helvetica;fontSize=11;labelBorderColor=none;labelBackgroundColor=none;strokeColor=#d79b00;fillColor=#ffe6cc;strokeWidth=5;spacingLeft=0;spacing=5;" parent="1" vertex="1">
          <mxGeometry x="520" y="680" width="320" height="160" as="geometry" />
        </mxCell>
      </root>
    </mxGraphModel>
  </diagram>
  <diagram id="PKGxgJt4XKHP9bSB5q0h" name="forward chaining logic statements">
    <mxGraphModel dx="1434" dy="844" grid="1" gridSize="10" guides="1" tooltips="1" connect="1" arrows="1" fold="1" page="1" pageScale="1" pageWidth="850" pageHeight="1100" math="0" shadow="0">
      <root>
        <mxCell id="0" />
        <mxCell id="1" parent="0" />
        <mxCell id="6e4O-oJbykPvVArD7S-P-2" style="edgeStyle=orthogonalEdgeStyle;rounded=0;orthogonalLoop=1;jettySize=auto;html=1;exitX=1;exitY=0.5;exitDx=0;exitDy=0;" edge="1" parent="1" source="6e4O-oJbykPvVArD7S-P-1" target="6e4O-oJbykPvVArD7S-P-3">
          <mxGeometry relative="1" as="geometry">
            <mxPoint x="320" y="100" as="targetPoint" />
          </mxGeometry>
        </mxCell>
        <mxCell id="6e4O-oJbykPvVArD7S-P-1" value="A recipe with a consumer is required to satisfy the solution" style="ellipse;whiteSpace=wrap;html=1;aspect=fixed;fillColor=#e1d5e7;strokeColor=#9673a6;" vertex="1" parent="1">
          <mxGeometry x="40" y="40" width="120" height="120" as="geometry" />
        </mxCell>
        <mxCell id="ukyQKsKoaqfKHO8Ienwc-4" style="edgeStyle=orthogonalEdgeStyle;rounded=0;orthogonalLoop=1;jettySize=auto;html=1;exitX=1;exitY=0.5;exitDx=0;exitDy=0;" edge="1" parent="1" source="6e4O-oJbykPvVArD7S-P-3" target="ukyQKsKoaqfKHO8Ienwc-3">
          <mxGeometry relative="1" as="geometry" />
        </mxCell>
        <mxCell id="6e4O-oJbykPvVArD7S-P-3" value="The consumed type is a single atom product" style="rounded=0;whiteSpace=wrap;html=1;fillColor=#d5e8d4;strokeColor=#82b366;arcSize=50;" vertex="1" parent="1">
          <mxGeometry x="200" y="80" width="160" height="40" as="geometry" />
        </mxCell>
        <mxCell id="ukyQKsKoaqfKHO8Ienwc-1" value="a debonder is required" style="rounded=1;whiteSpace=wrap;html=1;arcSize=50;fillColor=#f8cecc;strokeColor=#b85450;" vertex="1" parent="1">
          <mxGeometry x="800" y="80" width="120" height="40" as="geometry" />
        </mxCell>
        <mxCell id="ukyQKsKoaqfKHO8Ienwc-5" value="unsure" style="edgeStyle=orthogonalEdgeStyle;rounded=0;orthogonalLoop=1;jettySize=auto;html=1;exitX=1;exitY=0.5;exitDx=0;exitDy=0;" edge="1" parent="1" source="ukyQKsKoaqfKHO8Ienwc-3" target="ukyQKsKoaqfKHO8Ienwc-6">
          <mxGeometry relative="1" as="geometry">
            <mxPoint x="600" y="100" as="targetPoint" />
          </mxGeometry>
        </mxCell>
        <mxCell id="ukyQKsKoaqfKHO8Ienwc-3" value="is a debonder necessary?" style="rhombus;whiteSpace=wrap;html=1;fillColor=#fff2cc;strokeColor=#d6b656;" vertex="1" parent="1">
          <mxGeometry x="400" y="40" width="120" height="120" as="geometry" />
        </mxCell>
        <mxCell id="ukyQKsKoaqfKHO8Ienwc-7" value="yes" style="edgeStyle=orthogonalEdgeStyle;rounded=0;orthogonalLoop=1;jettySize=auto;html=1;exitX=1;exitY=0.5;exitDx=0;exitDy=0;" edge="1" parent="1" source="ukyQKsKoaqfKHO8Ienwc-6" target="ukyQKsKoaqfKHO8Ienwc-1">
          <mxGeometry relative="1" as="geometry" />
        </mxCell>
        <mxCell id="ukyQKsKoaqfKHO8Ienwc-6" value="is every reagent larger than 1 atom?" style="rhombus;whiteSpace=wrap;html=1;fillColor=#fff2cc;strokeColor=#d6b656;" vertex="1" parent="1">
          <mxGeometry x="600" y="40" width="120" height="120" as="geometry" />
        </mxCell>
        <mxCell id="XYLigr_GGdFTDBz2WnyR-2" style="edgeStyle=orthogonalEdgeStyle;rounded=0;orthogonalLoop=1;jettySize=auto;html=1;exitX=1;exitY=0.5;exitDx=0;exitDy=0;" edge="1" parent="1" source="XYLigr_GGdFTDBz2WnyR-1" target="XYLigr_GGdFTDBz2WnyR-3">
          <mxGeometry relative="1" as="geometry">
            <mxPoint x="240" y="300" as="targetPoint" />
          </mxGeometry>
        </mxCell>
        <mxCell id="XYLigr_GGdFTDBz2WnyR-1" value="there are more required glpyhs and parts than there are grabbable positions" style="ellipse;whiteSpace=wrap;html=1;aspect=fixed;fillColor=#e1d5e7;strokeColor=#9673a6;" vertex="1" parent="1">
          <mxGeometry x="40" y="240" width="120" height="120" as="geometry" />
        </mxCell>
        <mxCell id="XYLigr_GGdFTDBz2WnyR-5" style="edgeStyle=orthogonalEdgeStyle;rounded=0;orthogonalLoop=1;jettySize=auto;html=1;exitX=1;exitY=0.5;exitDx=0;exitDy=0;entryX=0;entryY=0.5;entryDx=0;entryDy=0;" edge="1" parent="1" source="XYLigr_GGdFTDBz2WnyR-3" target="XYLigr_GGdFTDBz2WnyR-4">
          <mxGeometry relative="1" as="geometry" />
        </mxCell>
        <mxCell id="XYLigr_GGdFTDBz2WnyR-3" value="the arm cannot access every part directly" style="rounded=0;whiteSpace=wrap;html=1;fillColor=#d5e8d4;strokeColor=#82b366;arcSize=50;" vertex="1" parent="1">
          <mxGeometry x="200" y="280" width="160" height="40" as="geometry" />
        </mxCell>
        <mxCell id="XYLigr_GGdFTDBz2WnyR-10" style="edgeStyle=orthogonalEdgeStyle;rounded=0;orthogonalLoop=1;jettySize=auto;html=1;exitX=1;exitY=0.5;exitDx=0;exitDy=0;entryX=0;entryY=0.5;entryDx=0;entryDy=0;" edge="1" parent="1" source="XYLigr_GGdFTDBz2WnyR-4" target="XYLigr_GGdFTDBz2WnyR-9">
          <mxGeometry relative="1" as="geometry" />
        </mxCell>
        <mxCell id="XYLigr_GGdFTDBz2WnyR-4" value="among the parts, how many spots must be accessible?" style="rhombus;whiteSpace=wrap;html=1;fillColor=#d5e8d4;strokeColor=#82b366;" vertex="1" parent="1">
          <mxGeometry x="400" y="240" width="120" height="120" as="geometry" />
        </mxCell>
        <mxCell id="XYLigr_GGdFTDBz2WnyR-8" style="edgeStyle=orthogonalEdgeStyle;rounded=0;orthogonalLoop=1;jettySize=auto;html=1;exitX=0.5;exitY=0;exitDx=0;exitDy=0;dashed=1;" edge="1" parent="1" source="XYLigr_GGdFTDBz2WnyR-7" target="XYLigr_GGdFTDBz2WnyR-4">
          <mxGeometry relative="1" as="geometry" />
        </mxCell>
        <mxCell id="XYLigr_GGdFTDBz2WnyR-7" value="in what order do reagents use the bonder/debonder?" style="rounded=0;whiteSpace=wrap;html=1;arcSize=50;" vertex="1" parent="1">
          <mxGeometry x="380" y="400" width="160" height="40" as="geometry" />
        </mxCell>
        <mxCell id="XYLigr_GGdFTDBz2WnyR-11" value="yes" style="edgeStyle=orthogonalEdgeStyle;rounded=0;orthogonalLoop=1;jettySize=auto;html=1;exitX=1;exitY=0.5;exitDx=0;exitDy=0;" edge="1" parent="1" source="XYLigr_GGdFTDBz2WnyR-9">
          <mxGeometry relative="1" as="geometry">
            <mxPoint x="720" y="300" as="targetPoint" />
          </mxGeometry>
        </mxCell>
        <mxCell id="XYLigr_GGdFTDBz2WnyR-9" value="are there more required access spots than grabbable positions?" style="rhombus;whiteSpace=wrap;html=1;fillColor=#fff2cc;strokeColor=#d6b656;" vertex="1" parent="1">
          <mxGeometry x="560" y="240" width="120" height="120" as="geometry" />
        </mxCell>
        <mxCell id="XYLigr_GGdFTDBz2WnyR-13" value="there must be more track.&lt;div&gt;increase cost&lt;/div&gt;" style="rounded=1;whiteSpace=wrap;html=1;arcSize=50;fillColor=#f8cecc;strokeColor=#b85450;" vertex="1" parent="1">
          <mxGeometry x="720" y="260" width="120" height="80" as="geometry" />
        </mxCell>
      </root>
    </mxGraphModel>
  </diagram>
  <diagram id="zKZtbUZZClJFjFKfKEEU" name="access">
    <mxGraphModel dx="1434" dy="844" grid="1" gridSize="10" guides="1" tooltips="1" connect="1" arrows="1" fold="1" page="1" pageScale="1" pageWidth="850" pageHeight="1100" math="0" shadow="0">
      <root>
        <mxCell id="0" />
        <mxCell id="1" parent="0" />
        <mxCell id="UYgD5k0unSeDQicY75Bw-5" style="edgeStyle=orthogonalEdgeStyle;rounded=0;orthogonalLoop=1;jettySize=auto;html=1;exitX=1;exitY=0.5;exitDx=0;exitDy=0;" edge="1" parent="1" source="UYgD5k0unSeDQicY75Bw-1" target="UYgD5k0unSeDQicY75Bw-2">
          <mxGeometry relative="1" as="geometry" />
        </mxCell>
        <mxCell id="UYgD5k0unSeDQicY75Bw-1" value="bonder access" style="ellipse;whiteSpace=wrap;html=1;fillColor=#e1d5e7;strokeColor=#9673a6;" vertex="1" parent="1">
          <mxGeometry x="80" y="40" width="120" height="120" as="geometry" />
        </mxCell>
        <mxCell id="UYgD5k0unSeDQicY75Bw-3" value="yes" style="edgeStyle=orthogonalEdgeStyle;rounded=0;orthogonalLoop=1;jettySize=auto;html=1;" edge="1" parent="1" source="UYgD5k0unSeDQicY75Bw-2" target="UYgD5k0unSeDQicY75Bw-4">
          <mxGeometry relative="1" as="geometry">
            <mxPoint x="300" y="240" as="targetPoint" />
          </mxGeometry>
        </mxCell>
        <mxCell id="UYgD5k0unSeDQicY75Bw-7" value="no" style="edgeStyle=orthogonalEdgeStyle;rounded=0;orthogonalLoop=1;jettySize=auto;html=1;exitX=1;exitY=0.5;exitDx=0;exitDy=0;" edge="1" parent="1" source="UYgD5k0unSeDQicY75Bw-2" target="UYgD5k0unSeDQicY75Bw-6">
          <mxGeometry relative="1" as="geometry" />
        </mxCell>
        <mxCell id="UYgD5k0unSeDQicY75Bw-2" value="is there a product&lt;div&gt;with bonds and every&lt;/div&gt;&lt;div&gt;reagent has 1 atom?&lt;/div&gt;" style="rhombus;whiteSpace=wrap;html=1;fillColor=#fff2cc;strokeColor=#d6b656;" vertex="1" parent="1">
          <mxGeometry x="240" y="20" width="160" height="160" as="geometry" />
        </mxCell>
        <mxCell id="UYgD5k0unSeDQicY75Bw-4" value="bonder is&lt;div&gt;2-access&lt;/div&gt;" style="rounded=1;whiteSpace=wrap;html=1;arcSize=50;fillColor=#f8cecc;strokeColor=#b85450;" vertex="1" parent="1">
          <mxGeometry x="260" y="240" width="120" height="60" as="geometry" />
        </mxCell>
        <mxCell id="UYgD5k0unSeDQicY75Bw-9" style="edgeStyle=orthogonalEdgeStyle;rounded=0;orthogonalLoop=1;jettySize=auto;html=1;exitX=0.5;exitY=1;exitDx=0;exitDy=0;" edge="1" parent="1" source="UYgD5k0unSeDQicY75Bw-6" target="UYgD5k0unSeDQicY75Bw-8">
          <mxGeometry relative="1" as="geometry" />
        </mxCell>
        <mxCell id="UYgD5k0unSeDQicY75Bw-6" value="is there a product atom for whom every input atom is without bonds?" style="rhombus;whiteSpace=wrap;html=1;fillColor=#fff2cc;strokeColor=#d6b656;" vertex="1" parent="1">
          <mxGeometry x="440" y="20" width="160" height="160" as="geometry" />
        </mxCell>
        <mxCell id="UYgD5k0unSeDQicY75Bw-8" value="bonder is&lt;div&gt;not 0-access&lt;/div&gt;" style="rounded=1;whiteSpace=wrap;html=1;arcSize=50;fillColor=#d5e8d4;strokeColor=#82b366;" vertex="1" parent="1">
          <mxGeometry x="460" y="240" width="120" height="60" as="geometry" />
        </mxCell>
      </root>
    </mxGraphModel>
  </diagram>
  <diagram id="Vj_rQsd0GroJzzwLZHYg" name="atom types">
    <mxGraphModel dx="1434" dy="844" grid="1" gridSize="10" guides="1" tooltips="1" connect="1" arrows="1" fold="1" page="1" pageScale="1" pageWidth="850" pageHeight="1100" math="0" shadow="0">
      <root>
        <mxCell id="0" />
        <mxCell id="1" parent="0" />
        <mxCell id="eyFbTWXT0AzYE3GLYfgc-4" style="edgeStyle=orthogonalEdgeStyle;rounded=0;orthogonalLoop=1;jettySize=auto;html=1;" edge="1" parent="1" source="eyFbTWXT0AzYE3GLYfgc-1" target="eyFbTWXT0AzYE3GLYfgc-3">
          <mxGeometry relative="1" as="geometry">
            <Array as="points">
              <mxPoint x="140" y="100" />
            </Array>
          </mxGeometry>
        </mxCell>
        <mxCell id="eyFbTWXT0AzYE3GLYfgc-5" style="edgeStyle=orthogonalEdgeStyle;rounded=0;orthogonalLoop=1;jettySize=auto;html=1;" edge="1" parent="1" source="eyFbTWXT0AzYE3GLYfgc-1" target="eyFbTWXT0AzYE3GLYfgc-2">
          <mxGeometry relative="1" as="geometry">
            <Array as="points">
              <mxPoint x="140" y="260" />
            </Array>
          </mxGeometry>
        </mxCell>
        <mxCell id="eyFbTWXT0AzYE3GLYfgc-1" value="how is an atom made?" style="ellipse;whiteSpace=wrap;html=1;fillColor=#e1d5e7;strokeColor=#9673a6;" vertex="1" parent="1">
          <mxGeometry x="80" y="120" width="120" height="120" as="geometry" />
        </mxCell>
        <mxCell id="eyFbTWXT0AzYE3GLYfgc-2" value="it is converted to that type by a part" style="rounded=0;whiteSpace=wrap;html=1;" vertex="1" parent="1">
          <mxGeometry x="240" y="240" width="120" height="40" as="geometry" />
        </mxCell>
        <mxCell id="eyFbTWXT0AzYE3GLYfgc-6" style="edgeStyle=orthogonalEdgeStyle;rounded=0;orthogonalLoop=1;jettySize=auto;html=1;" edge="1" parent="1" source="eyFbTWXT0AzYE3GLYfgc-2" target="eyFbTWXT0AzYE3GLYfgc-8">
          <mxGeometry relative="1" as="geometry">
            <mxPoint x="440" y="100" as="targetPoint" />
          </mxGeometry>
        </mxCell>
        <mxCell id="eyFbTWXT0AzYE3GLYfgc-10" style="edgeStyle=orthogonalEdgeStyle;rounded=0;orthogonalLoop=1;jettySize=auto;html=1;exitX=1;exitY=0.5;exitDx=0;exitDy=0;" edge="1" parent="1" source="eyFbTWXT0AzYE3GLYfgc-3" target="eyFbTWXT0AzYE3GLYfgc-9">
          <mxGeometry relative="1" as="geometry" />
        </mxCell>
        <mxCell id="eyFbTWXT0AzYE3GLYfgc-3" value="it is produced with the type by a part without a bond" style="rounded=0;whiteSpace=wrap;html=1;" vertex="1" parent="1">
          <mxGeometry x="240" y="80" width="120" height="40" as="geometry" />
        </mxCell>
        <mxCell id="eyFbTWXT0AzYE3GLYfgc-8" value="the atom is made with a different type" style="rounded=1;whiteSpace=wrap;html=1;" vertex="1" parent="1">
          <mxGeometry x="440" y="230" width="120" height="60" as="geometry" />
        </mxCell>
        <mxCell id="eyFbTWXT0AzYE3GLYfgc-9" value="other atoms are consumed" style="rounded=1;whiteSpace=wrap;html=1;" vertex="1" parent="1">
          <mxGeometry x="440" y="70" width="120" height="60" as="geometry" />
        </mxCell>
      </root>
    </mxGraphModel>
  </diagram>
</mxfile>
